<svg xmlns="http://www.w3.org/2000/svg" viewBox="0 0 3050 50" width="3050" height="50"><path d="M13.234 1.664v.008h-4.47s-1.762-.361-2.1 1.492h-.012v5.701h.012c.338 2.201 2.1 1.772 2.1 1.772h4.49l.03 8.836v19.851h-4.52s-1.762-.361-2.1 1.492h-.012v5.701h.012c.338 2.201 2.1 1.772 2.1 1.772h4.52v-.026l17.01.061s15.021-.41 15.021-14.23c0 0 1.55-8.869-9.71-11.55 0 0 7.439-2.03 6.63-11.521 0 0 0-8.489-12.46-9.38h-16.54v.021zM63.323 1.691v.008l-4.459-.012s-1.757-.364-2.098 1.483h-.012l-.015 5.687h.012c.332 2.196 2.09 1.773 2.09 1.773l4.479.011.008 8.814-.051 19.801-4.508-.012s-1.757-.364-2.099 1.483h-.012l-.014 5.687h.012c.332 2.196 2.09 1.772 2.09 1.772l4.509.012v-.026l16.967.104s14.984-.371 15.019-14.156c0 0 1.568-8.843-9.657-11.546 0 0 7.426-2.006 6.643-11.475 0 0 .021-8.467-12.405-9.388L63.324 1.67v.021zM113.616 1.779v.007l-4.422-.048s-1.739-.376-2.093 1.453h-.012l-.062 5.639h.012c.31 2.181 2.058 1.775 2.058 1.775l4.441.049-.066 8.74-.216 19.636-4.471-.05s-1.739-.376-2.094 1.453h-.011l-.062 5.639h.011c.311 2.181 2.058 1.776 2.058 1.776l4.471.049v-.026l16.825.246s14.862-.243 15.012-13.912c0 0 1.63-8.756-9.479-11.53 0 0 7.381-1.927 6.684-11.324 0 0 .092-8.397-12.223-9.413l-16.36-.18v.021zM164.163 1.943l-.001.007-4.351-.118s-1.706-.398-2.084 1.397h-.012l-.151 5.55h.012c.271 2.152 1.998 1.781 1.998 1.781l4.371.119-.205 8.603-.525 19.326-4.4-.12s-1.706-.398-2.084 1.397h-.012l-.151 5.55h.012c.271 2.152 1.998 1.781 1.998 1.781l4.4.12.001-.026 16.558.51s14.635-.002 15-13.457c0 0 1.744-8.593-9.147-11.501 0 0 7.295-1.779 6.759-11.041 0 0 .224-8.264-11.882-9.461l-16.103-.438v.021zM215.029 2.203l-.001.007-4.241-.228s-1.654-.433-2.069 1.308l-.012-.001-.291 5.41.011.001c.209 2.105 1.902 1.788 1.902 1.788l4.261.23-.423 8.386-1.015 18.836-4.289-.231s-1.654-.433-2.069 1.308h-.011l-.292 5.409.012.001c.208 2.106 1.902 1.789 1.902 1.789l4.289.231.001-.025 16.137.927s14.274.379 14.981-12.734c0 0 1.924-8.337-8.623-11.456 0 0 7.162-1.546 6.88-10.593 0 0 .434-8.055-11.344-9.538l-15.694-.845-.001.02zM266.296 2.583l-.001.007-4.08-.39s-1.577-.483-2.047 1.179l-.011-.001-.497 5.204.011.001c.117 2.038 1.762 1.8 1.762 1.8l4.099.392-.744 8.068-1.731 18.12-4.126-.395s-1.577-.483-2.047 1.179l-.011-.001-.497 5.204.011.001c.116 2.038 1.762 1.8 1.762 1.8l4.126.395.002-.024 15.521 1.539s13.747.936 14.952-11.678c0 0 2.189-7.961-7.855-11.39 0 0 6.967-1.204 7.056-9.938 0 0 .741-7.748-10.555-9.648l-15.097-1.443-.002.019zM318.058 3.112l-.002.007-3.855-.615s-1.471-.553-2.017.999l-.01-.002-.784 4.918.011.002c-.011 1.945 1.568 1.817 1.568 1.817l3.873.617-1.188 7.626-2.728 17.123-3.899-.621s-1.47-.553-2.016.998L307 35.98l-.783 4.918.01.001c-.011 1.945 1.568 1.817 1.568 1.817l3.899.621.004-.022 14.664 2.39s13.014 1.71 14.913-10.211c0 0 2.556-7.438-6.789-11.298 0 0 6.696-.728 7.302-9.027 0 0 1.166-7.322-9.459-9.803l-14.268-2.272-.003.018zM370.383 3.809l-.002.007-3.56-.91s-1.33-.647-1.976.76l-.01-.002-1.16 4.54.009.002c-.179 1.822 1.312 1.839 1.312 1.839l3.575.914-1.775 7.043-4.042 15.809-3.6-.92s-1.33-.647-1.976.76l-.01-.002-1.161 4.54.01.002c-.179 1.822 1.311 1.839 1.311 1.839l3.6.92.005-.02 13.534 3.512s12.046 2.732 14.86-8.274c0 0 3.041-6.747-5.381-11.175 0 0 6.338-.102 7.626-7.825 0 0 1.729-6.76-8.012-10.007l-13.172-3.368-.005.016zM423.24 4.667l-.003.006-3.196-1.274s-1.156-.761-1.926.468l-.009-.004-1.625 4.077.009.003c-.386 1.67.996 1.865.996 1.865l3.211 1.28-2.497 6.326-5.658 14.194-3.232-1.289s-1.157-.76-1.927.468l-.008-.003-1.625 4.076.008.004c-.385 1.67.997 1.865.997 1.865l3.231 1.288.008-.018 12.145 4.891s10.856 3.989 14.795-5.893c0 0 3.636-5.899-3.65-11.025 0 0 5.897.669 8.024-6.348 0 0 2.419-6.069-6.236-10.258l-11.826-4.714-.006.015zM476.419 5.621l-.003.005-2.791-1.679s-.965-.887-1.872.143l-.007-.004-2.141 3.559.007.005c-.615 1.501.646 1.895.646 1.895l2.804 1.687-3.3 5.528-7.456 12.395-2.822-1.697s-.965-.887-1.872.143l-.008-.005-2.141 3.56.007.005c-.615 1.501.646 1.895.646 1.895l2.823 1.697.009-.016 10.599 6.427s9.533 5.386 14.724-3.244c0 0 4.299-4.956-1.725-10.859 0 0 5.407 1.527 8.467-4.704 0 0 3.188-5.3-4.257-10.536l-10.328-6.213-.008.013zM529.595 6.574l-.004.005-2.386-2.084s-.773-1.014-1.817-.182l-.006-.005-2.657 3.044.006.005c-.845 1.333.296 1.925.296 1.925l2.397 2.093-4.102 4.732-9.252 10.599-2.413-2.106s-.773-1.014-1.817-.182l-.007-.006-2.657 3.044.007.006c-.845 1.332.295 1.924.295 1.924l2.414 2.107.012-.014 9.054 7.96s8.212 6.782 14.653-.597c0 0 4.961-4.014.198-10.693 0 0 4.918 2.383 8.909-3.062 0 0 3.957-4.532-2.281-10.815l-8.831-7.709-.01.011zM582.511 7.449l-.005.004-2.015-2.455s-.596-1.13-1.766-.48l-.006-.007-3.13 2.571.005.007c-1.056 1.178-.026 1.952-.026 1.952l2.025 2.465-4.839 4.001-10.9 8.951-2.038-2.482s-.596-1.131-1.767-.481l-.005-.006-3.13 2.57.005.007c-1.056 1.178-.026 1.952-.026 1.952l2.038 2.482.014-.012 7.637 9.368s6.998 8.063 14.587 1.832c0 0 5.569-3.148 1.964-10.54 0 0 4.468 3.17 9.315-1.554 0 0 4.662-3.828-.467-11.071l-7.458-9.083-.012.009zM635.061 8.215l-.005.003-1.691-2.779s-.442-1.233-1.722-.742l-.004-.007-3.545 2.156.005.008c-1.241 1.042-.308 1.976-.308 1.976l1.699 2.791-5.483 3.361-12.342 7.509-1.71-2.81s-.442-1.232-1.722-.742l-.005-.007-3.544 2.156.004.008c-1.241 1.042-.307 1.976-.307 1.976l1.709 2.81.017-.01 6.396 10.599s5.937 9.184 14.53 3.957c0 0 6.101-2.391 3.508-10.406 0 0 4.076 3.857 9.671-.236 0 0 5.278-3.211 1.119-11.295l-6.257-10.284-.013.008zM687.245 8.87l-.006.003-1.412-3.058s-.31-1.319-1.685-.964l-.003-.009-3.9 1.802.004.008c-1.398.927-.548 1.997-.548 1.997l1.419 3.071-6.034 2.813-13.577 6.274-1.429-3.092s-.31-1.319-1.684-.965l-.004-.008-3.899 1.802.003.008c-1.398.927-.548 1.997-.548 1.997l1.429 3.091.017-.008 5.335 11.653s5.028 10.144 14.48 5.776c0 0 6.557-1.742 4.831-10.291 0 0 3.74 4.446 9.975.893 0 0 5.806-2.683 2.478-11.486L687.26 8.863l-.015.007zM739.102 9.428l-.005.002-1.177-3.294s-.197-1.393-1.652-1.155l-.003-.009-4.201 1.5.004.009c-1.533.828-.754 2.014-.754 2.014l1.182 3.308-6.503 2.348-14.628 5.223-1.189-3.331s-.198-1.393-1.653-1.154l-.003-.009-4.201 1.5.003.009c-1.533.828-.753 2.013-.753 2.013l1.189 3.331.02-.007 4.431 12.55s4.255 10.961 14.438 7.324c0 0 6.944-1.191 5.956-10.194 0 0 3.453 4.948 10.234 1.854 0 0 6.256-2.234 3.633-11.649l-4.352-12.189-.015.006zM790.682 9.902l-.006.001-.976-3.495s-.102-1.456-1.624-1.316l-.003-.009-4.457 1.243.002.01c-1.647.744-.927 2.028-.927 2.028l.98 3.511-6.902 1.951-15.521 4.33-.986-3.534s-.102-1.456-1.625-1.316l-.003-.01-4.457 1.244.002.009c-1.647.745-.927 2.029-.927 2.029l.986 3.534.02-.006 3.664 13.313s3.597 11.655 14.403 8.64c0 0 7.273-.723 6.912-10.112 0 0 3.21 5.374 10.454 2.671 0 0 6.637-1.852 4.616-11.788l-3.609-12.933-.016.005zM842.026 10.305l-.006.002-.804-3.666s-.021-1.511-1.601-1.454l-.003-.01-4.675 1.025.002.01c-1.744.673-1.076 2.041-1.076 2.041l.808 3.682-7.242 1.614-16.281 3.57-.813-3.707s-.02-1.51-1.602-1.454l-.002-.01-4.676 1.025.003.01c-1.745.673-1.076 2.041-1.076 2.041l.813 3.707.021-.004 3.01 13.962s3.038 12.245 14.372 9.76c0 0 7.554-.324 7.727-10.041 0 0 3.003 5.736 10.641 3.366 0 0 6.963-1.527 5.452-11.906l-2.974-13.567-.017.004zM893.173 10.649l-.007.001-.658-3.812s.048-1.555-1.582-1.571l-.001-.01-4.862.839.002.01c-1.828.612-1.202 2.052-1.202 2.052l.66 3.829-7.531 1.326-16.929 2.922-.665-3.855s.048-1.555-1.582-1.571l-.002-.01-4.862.839.002.01c-1.828.612-1.202 2.052-1.202 2.052l.665 3.855.022-.004 2.453 14.515s2.56 12.75 14.346 10.716c0 0 7.793.016 8.421-9.981 0 0 2.826 6.045 10.801 3.958 0 0 7.239-1.249 6.165-12.007l-2.434-14.106-.018.003zM944.15 10.943l-.007.001-.533-3.937s.108-1.595-1.565-1.671l-.001-.011-5.021.681.002.01c-1.898.56-1.31 2.061-1.31 2.061l.536 3.954-7.778 1.081-17.482 2.369-.54-3.981s.108-1.594-1.565-1.671l-.002-.01-5.02.68.001.011c-1.898.56-1.31 2.06-1.31 2.06l.54 3.981.023-.003 1.977 14.987s2.154 13.18 14.324 11.53c0 0 7.997.307 9.013-9.929 0 0 2.676 6.309 10.937 4.464 0 0 7.476-1.014 6.774-12.093l-1.974-14.567-.018.003zM994.983 11.193h-.007l-.427-4.042s.158-1.628-1.55-1.757l-.002-.011-5.155.545.001.011c-1.959.516-1.402 2.069-1.402 2.069l.429 4.061-7.988.872-17.953 1.898-.432-4.088s.158-1.628-1.551-1.757l-.001-.011-5.156.545.001.011c-1.958.516-1.402 2.069-1.402 2.069l.432 4.088.024-.003 1.572 15.39s1.807 13.545 14.306 12.224c0 0 8.17.554 9.517-9.886 0 0 2.547 6.534 11.053 4.895 0 0 7.677-.812 7.292-12.166l-1.582-14.959-.019.002zM1045.691 11.405l-.007.001-.338-4.133s.201-1.656-1.537-1.829l-.001-.011-5.271.43.001.011c-2.01.479-1.48 2.075-1.48 2.075l.339 4.152-8.167.694-18.354 1.498-.341-4.179s.201-1.656-1.538-1.829l-.001-.011-5.271.43.001.011c-2.01.479-1.48 2.075-1.48 2.075l.341 4.179.024-.002 1.228 15.731s1.513 13.857 14.29 12.814c0 0 8.317.764 9.946-9.848 0 0 2.438 6.724 11.152 5.26 0 0 7.848-.641 7.732-12.228l-1.248-15.293-.02.002zM1096.289 11.585h-.007l-.261-4.209s.237-1.68-1.528-1.89l-.001-.011-5.368.333.001.011c-2.053.447-1.546 2.081-1.546 2.081l.263 4.228-8.318.544-18.692 1.16-.264-4.256s.237-1.681-1.528-1.891l-.001-.011-5.368.333.001.011c-2.053.447-1.546 2.081-1.546 2.081l.264 4.256.024-.001.937 16.02s1.264 14.119 14.277 13.312c0 0 8.442.941 10.308-9.818 0 0 2.346 6.886 11.235 5.57 0 0 7.993-.496 8.104-12.28l-.966-15.575-.02.002zM1146.791 11.735h-.008l-.197-4.272s.267-1.7-1.519-1.942V5.51l-5.45.251.001.012c-2.089.42-1.601 2.085-1.601 2.085l.198 4.292-8.445.419-18.975.876-.2-4.321s.268-1.7-1.519-1.941l-.001-.012-5.449.252v.011c-2.089.42-1.601 2.086-1.601 2.086l.2 4.32.024-.001.694 16.262s1.054 14.34 14.264 13.731c0 0 8.547 1.09 10.612-9.792 0 0 2.269 7.022 11.306 5.829 0 0 8.114-.374 8.416-12.324l-.73-15.811-.02.001zM1197.207 11.86h-.008l-.144-4.325s.293-1.717-1.511-1.985l-.001-.011-5.517.184v.011c-2.119.399-1.647 2.09-1.647 2.09l.145 4.345-8.55.314-19.21.641-.146-4.374s.293-1.717-1.512-1.985l-.001-.011-5.517.184.001.011c-2.12.399-1.647 2.09-1.647 2.09l.145 4.374.026-.001.49 16.463s.882 14.523 14.256 14.077c0 0 8.634 1.214 10.864-9.769 0 0 2.204 7.133 11.363 6.044 0 0 8.215-.274 8.675-12.36l-.534-16.008-.02.001zM1247.547 11.962h-.008l-.101-4.369s.313-1.73-1.506-2.019v-.011l-5.572.128v.012c-2.144.38-1.685 2.093-1.685 2.093l.102 4.388-8.636.229-19.402.449-.102-4.418s.313-1.73-1.507-2.019v-.012l-5.572.129v.012c-2.144.38-1.685 2.093-1.685 2.093l.102 4.417h.026l.326 16.627s.74 14.672 14.247 14.36c0 0 8.705 1.314 11.07-9.752 0 0 2.152 7.225 11.411 6.22 0 0 8.297-.192 8.886-12.39l-.374-16.168-.02.001zM1297.817 12.043h-.008l-.066-4.403s.329-1.741-1.501-2.047v-.012l-5.616.085v.012c-2.163.366-1.715 2.095-1.715 2.095l.067 4.423-8.704.162-19.555.295-.068-4.453s.33-1.741-1.502-2.046v-.012l-5.616.085v.012c-2.163.365-1.714 2.095-1.714 2.095l.067 4.453.026-.001.194 16.758s.627 14.791 14.242 14.585c0 0 8.761 1.395 11.233-9.737 0 0 2.111 7.298 11.448 6.36 0 0 8.363-.127 9.055-12.414l-.246-16.295h-.021zM1348.026 12.106h-.008l-.04-4.43s.342-1.75-1.498-2.068v-.012l-5.65.051v.012c-2.178.355-1.737 2.097-1.737 2.097l.04 4.45-8.756.109-19.674.177-.04-4.479s.342-1.75-1.499-2.068v-.012l-5.65.051v.012c-2.178.355-1.737 2.097-1.737 2.097l.041 4.48.025-.001.093 16.859s.541 14.883 14.237 14.759c0 0 8.805 1.457 11.36-9.727 0 0 2.078 7.355 11.477 6.468 0 0 8.413-.076 9.185-12.433l-.148-16.392h-.021zM1398.177 12.151h-.008l-.02-4.449s.351-1.756-1.495-2.083v-.012l-5.675.026v.012c-2.189.347-1.754 2.098-1.754 2.098l.021 4.47-8.795.07-19.759.092-.021-4.499s.351-1.755-1.496-2.083v-.012l-5.674.026v.012c-2.19.347-1.754 2.099-1.754 2.099l.021 4.499h.025l.019 16.931s.478 14.95 14.234 14.886c0 0 8.836 1.502 11.452-9.719 0 0 2.055 7.395 11.498 6.546 0 0 8.45-.039 9.279-12.445l-.077-16.465h-.021zM1448.277 12.181h-.008l-.008-4.462s.358-1.759-1.493-2.093v-.012l-5.691.01v.012c-2.196.341-1.765 2.099-1.765 2.099l.008 4.482-8.82.046-19.815.035-.008-4.512s.357-1.759-1.495-2.093v-.012l-5.69.01v.012c-2.197.341-1.765 2.099-1.765 2.099l.008 4.512h.026l-.03 16.98s.436 14.993 14.231 14.969c0 0 8.857 1.531 11.513-9.713 0 0 2.039 7.422 11.512 6.597 0 0 8.474-.015 9.341-12.454l-.03-16.512h-.021zM1498.33 12.197h-.008l-.002-4.469s.361-1.761-1.492-2.099v-.012l-5.699.002v.012c-2.2.339-1.771 2.1-1.771 2.1l.001 4.489-8.833.032-19.845.006-.002-4.519s.361-1.761-1.493-2.099v-.012l-5.699.002v.012c-2.2.339-1.771 2.1-1.771 2.1l.001 4.519h.026l-.055 17.005s.415 15.016 14.231 15.012c0 0 8.868 1.547 11.543-9.711 0 0 2.032 7.437 11.52 6.625 0 0 8.486-.002 9.374-12.459l-.005-16.536h-.021zM1523.275 42.093c1.711-1.438 3.291-3.767 4.185-7.52 0 0 2.03 7.437 11.519 6.627.001 0 8.488-.001 9.379-12.459l.001-16.538-.02-.002.001-.001c-.003 0-.005-.001-.008-.001V7.73c-.001 0 .36-1.762-1.492-2.1l-.001-.012h-5.7l-.002.014c-2.201.339-1.772 2.101-1.773 2.102v4.489c-2.945.01-5.89.02-8.834.03l-19.849-.002-.001-4.521c0-.001.36-1.762-1.494-2.1v-.012l-5.7.001v.012c-2.201.338-1.772 2.1-1.772 2.1l.001 4.52h.026l-.02 5.67-.019 5.669-.02 5.669c0 .001.017.602.154 1.563s.394 2.283.876 3.725c.481 1.442 1.187 3.004 2.222 4.446 1.034 1.442 2.397 2.764 4.192 3.725 1.794.961 4.022 1.562 6.785 1.562 0 .001.986.173 2.399-.014 1.413-.188 3.254-.735 4.965-2.173M1573.279 42.101c1.706-1.429 3.284-3.75 4.176-7.49.006-.009 2.033 7.389 11.491 6.575.006-.009 8.465-.019 9.359-12.435l.018-16.5-.003-.027.018-.027c0-.003-.004-.008-.009-.01l-.007-4.456c-.002-.002.355-1.758-1.492-2.096l-.006-.017c-1.896-.002-3.792-.001-5.687.002l-.031.057c-2.202.352-1.785 2.122-1.795 2.137-.001 1.492-.003 2.983-.004 4.474-2.935.01-5.869.019-8.803.027l-19.8-.045-.032-4.547c-.002-.003.353-1.758-1.496-2.092l-.006-.007-5.683.005-.006.017c-2.194.339-1.768 2.099-1.765 2.102l.008 4.513.034.012-.011 5.659-.012 5.658-.011 5.659c.003.004.022.606.161 1.568.139.961.398 2.281.88 3.721.483 1.44 1.189 3 2.221 4.44 1.033 1.44 2.393 2.761 4.184 3.722 1.79.961 4.011 1.564 6.767 1.568.002.004.987.179 2.397-.003 1.407-.187 3.241-.731 4.945-2.164M1623.289 42.12c1.694-1.407 3.265-3.704 4.153-7.416.02-.03 2.042 7.273 11.42 6.445.02-.03 8.41-.061 9.309-12.376l.061-16.4.041-.091.061-.092c.005-.011 0-.026-.014-.034l-.021-4.423c-.007-.005.342-1.748-1.492-2.086l-.022-.028c-1.883-.008-3.772-.005-5.652.006l-.104.165c-2.205.384-1.817 2.172-1.851 2.223-.004 1.481-.009 2.96-.014 4.435-2.909.01-5.817.017-8.725.022l-19.678-.154-.107-4.609c-.007-.011.335-1.75-1.503-2.075l-.02.006-5.64.017-.02.03c-2.18.341-1.759 2.094-1.751 2.105l.028 4.497.054.041.009 5.632.008 5.631.009 5.631c.01.014.035.62.179 1.581.145.962.408 2.279.892 3.714.484 1.435 1.19 2.989 2.219 4.425 1.03 1.435 2.383 2.752 4.162 3.714 1.779.961 3.985 1.567 6.72 1.581.009.013.99.197 2.393.026 1.393-.185 3.209-.724 4.896-2.143M1673.306 42.154c1.674-1.369 3.232-3.626 4.114-7.286.045-.068 2.057 7.07 11.296 6.218.045-.068 8.314-.136 9.222-12.274l.136-16.226.116-.204.137-.204c.013-.025.005-.059-.021-.076l-.047-4.365c-.016-.012.318-1.73-1.493-2.07l-.047-.046c-1.864-.018-3.737-.012-5.594.012l-.232.352c-2.209.441-1.87 2.262-1.948 2.375-.008 1.462-.019 2.918-.029 4.368-2.864.01-5.728.013-8.59.011l-19.466-.341-.237-4.72c-.017-.023.302-1.734-1.516-2.043l-.044.027-5.567.039-.044.05c-2.153.347-1.742 2.089-1.725 2.112l.063 4.47.088.092.044 5.583.044 5.584.043 5.583c.022.031.058.643.212 1.605s.424 2.273.911 3.7c.488 1.427 1.193 2.971 2.216 4.398 1.023 1.427 2.364 2.738 4.124 3.7 1.76.962 3.939 1.574 6.637 1.605.021.03.997.227 2.387.076 1.369-.181 3.153-.711 4.81-2.105M1723.333 42.206c1.642-1.311 3.181-3.507 4.053-7.088.084-.125 2.08 6.758 11.106 5.871.084-.126 8.166-.251 9.089-12.116l.251-15.961.232-.377.251-.376c.028-.045.015-.108-.03-.139l-.088-4.277c-.029-.022.282-1.704-1.493-2.044l-.088-.076c-1.833-.032-3.683-.022-5.504.023l-.426.64c-2.216.528-1.954 2.397-2.097 2.607-.015 1.432-.035 2.853-.055 4.264-2.795.009-5.59.008-8.38-.005l-19.141-.629-.438-4.888c-.031-.044.251-1.712-1.536-1.995l-.081.06-5.453.071-.081.083c-2.114.353-1.717 2.078-1.687 2.122l.117 4.427.141.169.097 5.511.098 5.51.098 5.511c.039.056.093.679.261 1.64.167.962.449 2.264.941 3.679.493 1.415 1.197 2.943 2.21 4.358 1.014 1.414 2.336 2.716 4.067 3.678 1.73.962 3.868 1.584 6.511 1.64.038.057 1.006.275 2.376.155 1.332-.177 3.067-.692 4.679-2.048M1773.371 42.281c1.598-1.227 3.109-3.335 3.966-6.803.139-.208 2.113 6.31 10.834 5.371.139-.208 7.953-.416 8.898-11.89l.416-15.58.398-.624.416-.624c.047-.074.028-.177-.046-.23l-.145-4.15c-.048-.036.23-1.665-1.494-2.006l-.145-.119c-1.789-.053-3.606-.036-5.374.038l-.707 1.053c-2.226.652-2.074 2.593-2.31 2.94-.025 1.39-.058 2.762-.091 4.115-2.696.009-5.393 0-8.082-.027l-18.674-1.043-.725-5.13c-.051-.073.179-1.678-1.563-1.926l-.135.108-5.29.118-.135.129c-2.057.364-1.681 2.064-1.63 2.137l.193 4.366.216.28.175 5.406.175 5.406.175 5.406c.065.093.144.729.332 1.691.188.963.485 2.251.985 3.648.499 1.397 1.202 2.903 2.202 4.3.999 1.397 2.296 2.685 3.984 3.647 1.687.962 3.766 1.599 6.329 1.692.065.093 1.02.342 2.362.266 1.278-.17 2.943-.664 4.49-1.965M1823.423 42.383c1.537-1.113 3.01-3.1 3.847-6.413.215-.32 2.159 5.698 10.461 4.688.214-.321 7.663-.642 8.636-11.581l.643-15.058.625-.963.642-.962c.074-.114.045-.274-.066-.355l-.224-3.976c-.075-.056.158-1.613-1.495-1.956l-.224-.177c-1.729-.081-3.5-.055-5.197.059l-1.091 1.617c-2.239.824-2.237 2.861-2.601 3.397-.039 1.332-.09 2.636-.141 3.911-2.561.009-5.123-.01-7.672-.058l-18.036-1.609-1.119-5.46c-.078-.113.081-1.633-1.601-1.832l-.208.172-5.067.183-.208.192c-1.978.378-1.632 2.045-1.554 2.157l.298 4.283.32.431.281 5.263.281 5.263.281 5.262c.099.144.212.8.428 1.763.216.962.535 2.233 1.044 3.605.51 1.373 1.211 2.847 2.192 4.22.98 1.372 2.241 2.643 3.87 3.605 1.629.963 3.627 1.619 6.082 1.763.099.143 1.038.434 2.342.418 1.204-.16 2.773-.626 4.231-1.852M1873.491 42.515c1.457-.964 2.881-2.794 3.693-5.905.312-.468 2.217 4.902 9.976 3.8.312-.468 7.285-.935 8.296-11.179l.936-14.381.92-1.402.937-1.402c.109-.167.068-.4-.094-.518l-.326-3.75c-.108-.081.066-1.544-1.497-1.891l-.326-.252c-1.65-.118-3.363-.079-4.966.086l-1.59 2.351c-2.257 1.046-2.45 3.209-2.98 3.989-.056 1.257-.13 2.473-.205 3.648-2.386.008-4.772-.025-7.14-.099l-17.206-2.344-1.631-5.89c-.114-.164-.046-1.574-1.65-1.709l-.304.256-4.776.266-.304.274c-1.876.396-1.568 2.02-1.453 2.184l.434 4.174.454.628.418 5.077.419 5.077.418 5.076c.145.21.302.89.554 1.854.252.963.599 2.21 1.121 3.551.523 1.34 1.221 2.775 2.178 4.116.956 1.341 2.17 2.587 3.723 3.551 1.553.963 3.446 1.644 5.759 1.853.145.21 1.063.554 2.316.616 1.109-.147 2.554-.576 3.896-1.705M1923.574 42.676c1.359-.785 2.724-2.425 3.505-5.294.431-.644 2.288 3.941 9.391 2.728.43-.645 6.829-1.289 7.886-10.693l1.291-13.563 1.276-1.933 1.291-1.934c.151-.23.096-.55-.126-.713l-.449-3.478c-.15-.111-.046-1.462-1.499-1.811l-.45-.343c-1.555-.163-3.197-.11-4.687.118l-2.192 3.237c-2.278 1.314-2.707 3.629-3.438 4.705-.077 1.166-.18 2.275-.283 3.328-2.174.008-4.348-.041-6.498-.147l-16.204-3.232-2.248-6.409c-.158-.227-.201-1.503-1.711-1.561l-.418.358-4.426.366-.419.374c-1.753.418-1.49 1.989-1.333 2.215l.599 4.044.616.865.585 4.852.584 4.852.584 4.852c.2.289.411 1 .707 1.964.295.965.675 2.183 1.214 3.485.538 1.302 1.233 2.689 2.16 3.991.927 1.303 2.084 2.521 3.546 3.485 1.461.965 3.227 1.676 5.37 1.964.199.289 1.092.698 2.285.855.993-.132 2.288-.516 3.491-1.527M1973.664 42.851c1.254-.588 2.553-2.021 3.301-4.623.56-.839 2.365 2.889 8.75 1.554.56-.838 6.33-1.677 7.436-10.162l1.68-12.667 1.666-2.515 1.679-2.515c.198-.299.127-.716-.161-.928l-.585-3.179c-.195-.145-.168-1.372-1.5-1.724l-.585-.443c-1.452-.212-3.016-.142-4.383.154l-2.851 4.206c-2.302 1.608-2.989 4.089-3.939 5.488-.101 1.067-.234 2.06-.368 2.98-1.942.007-3.884-.06-5.794-.201l-15.108-4.204-2.925-6.977c-.204-.295-.37-1.425-1.775-1.399l-.544.469-4.044.476-.544.484c-1.618.442-1.406 1.956-1.201 2.249l.779 3.9.794 1.126.766 4.606.766 4.606.766 4.606c.259.376.529 1.12.872 2.085.344.966.761 2.152 1.316 3.413.555 1.26 1.248 2.594 2.142 3.855.894 1.26 1.99 2.447 3.352 3.412 1.361.965 2.987 1.709 4.943 2.085.26.375 1.124.856 2.251 1.116.867-.115 1.997-.45 3.048-1.333M2023.752 43.024c1.15-.393 2.385-1.622 3.1-3.962.687-1.029 2.442 1.851 8.118.396.687-1.03 5.836-2.059 6.992-9.638l2.063-11.782 2.051-3.089 2.063-3.089c.243-.367.156-.88-.196-1.14l-.718-2.884c-.24-.179-.29-1.283-1.503-1.639l-.719-.541c-1.348-.261-2.836-.175-4.082.189l-3.502 5.164c-2.324 1.897-3.266 4.543-4.433 6.262-.124.968-.288 1.847-.452 2.634-1.713.006-3.426-.078-5.1-.253l-14.025-5.163-3.592-7.539c-.251-.362-.537-1.348-1.84-1.238l-.669.578-3.664.585-.668.591c-1.486.466-1.323 1.923-1.071 2.284l.956 3.758.969 1.383.946 4.363.945 4.364.946 4.363c.319.461.646 1.237 1.036 2.204.391.966.845 2.122 1.417 3.341.571 1.219 1.261 2.501 2.124 3.72.862 1.219 1.897 2.374 3.159 3.341 1.262.966 2.752 1.743 4.523 2.204.319.461 1.155 1.012 2.217 1.375.743-.099 1.71-.386 2.609-1.142M2073.834 43.182c1.054-.216 2.231-1.257 2.914-3.357.805-1.204 2.512.901 7.54-.663.804-1.205 5.386-2.409 6.587-9.158l2.413-10.974 2.404-3.614 2.413-3.614c.285-.43.184-1.029-.228-1.334l-.841-2.614c-.28-.209-.399-1.202-1.504-1.561l-.84-.631c-1.256-.304-2.673-.204-3.808.222l-4.097 6.039c-2.345 2.162-3.519 4.957-4.885 6.968-.145.879-.336 1.653-.529 2.32-1.503.005-3.007-.095-4.465-.302l-13.036-6.04-4.202-8.051c-.294-.424-.689-1.278-1.899-1.093l-.782.679-3.318.684-.782.69c-1.364.487-1.247 1.893-.952 2.315l1.119 3.629 1.13 1.618 1.109 4.141 1.11 4.141 1.109 4.141c.373.54.753 1.346 1.187 2.313.433.968.921 2.095 1.508 3.276.587 1.181 1.274 2.416 2.107 3.597.833 1.181 1.812 2.308 2.984 3.275 1.171.967 2.535 1.774 4.138 2.314.373.539 1.184 1.155 2.186 1.611.629-.084 1.448-.327 2.21-.967M2123.905 43.32c.971-.06 2.096-.938 2.753-2.827.907-1.358 2.573.07 7.034-1.59.906-1.358 4.992-2.715 6.232-8.739l2.72-10.267 2.711-4.073 2.72-4.073c.322-.484.208-1.159-.256-1.503l-.947-2.379c-.316-.235-.497-1.13-1.506-1.491l-.947-.71c-1.174-.343-2.53-.23-3.567.25l-4.617 6.805c-2.364 2.393-3.742 5.32-5.281 7.586-.163.801-.379 1.482-.596 2.044-1.32.005-2.641-.11-3.91-.344l-12.17-6.807-4.736-8.5c-.331-.478-.823-1.217-1.951-.964l-.881.766-3.016.771-.881.776c-1.258.506-1.18 1.866-.848 2.342l1.261 3.516 1.27 1.824 1.253 3.946 1.253 3.947 1.253 3.947c.42.608.847 1.441 1.318 2.409.471.968.988 2.07 1.588 3.218.601 1.148 1.285 2.341 2.093 3.489.808 1.148 1.738 2.251 2.83 3.218 1.093.968 2.347 1.801 3.802 2.409.421.608 1.21 1.28 2.159 1.818.529-.07 1.219-.275 1.86-.814M2173.966 43.439c.899.073 1.98-.665 2.614-2.373.995-1.489 2.626-.643 6.6-2.386.994-1.488 4.654-2.977 5.928-8.378l2.982-9.66 2.976-4.467 2.983-4.467c.353-.531.229-1.272-.28-1.648l-1.038-2.177c-.347-.258-.58-1.069-1.508-1.433l-1.039-.777c-1.103-.377-2.406-.253-3.36.274l-5.064 7.462c-2.379 2.592-3.932 5.631-5.62 8.117-.179.733-.416 1.336-.654 1.807-1.163.005-2.326-.122-3.434-.38l-11.426-7.466-5.194-8.885c-.364-.523-.938-1.164-1.995-.854l-.967.842-2.756.846-.966.849c-1.167.523-1.122 1.844-.758 2.365l1.382 3.42 1.391 2 1.376 3.78 1.376 3.78 1.376 3.78c.461.667.927 1.522 1.431 2.49.504.969 1.045 2.051 1.657 3.17.612 1.119 1.295 2.277 2.08 3.396.786 1.119 1.675 2.201 2.699 3.169 1.024.969 2.185 1.824 3.513 2.491.461.667 1.231 1.387 2.136 1.995.443-.059 1.021-.23 1.559-.682M2224.018 43.54c.838.187 1.881-.431 2.496-1.985 1.069-1.601 2.671-1.251 6.23-3.064 1.069-1.601 4.364-3.202 5.667-8.072l3.207-9.142 3.202-4.803 3.207-4.803c.38-.571.247-1.368-.3-1.773l-1.117-2.004c-.372-.277-.65-1.016-1.508-1.382l-1.118-.835c-1.042-.405-2.301-.271-3.184.294l-5.445 8.023c-2.392 2.762-4.095 5.898-5.91 8.571-.192.675-.447 1.211-.703 1.605-1.028.004-2.058-.133-3.027-.411l-10.792-8.028-5.585-9.214c-.391-.563-1.035-1.118-2.033-.76l-1.039.906-2.535.909-1.039.913c-1.088.536-1.073 1.825-.681 2.385l1.486 3.337 1.493 2.15 1.482 3.638 1.481 3.638 1.481 3.638c.496.717.995 1.591 1.527 2.56.531.969 1.094 2.033 1.716 3.128.622 1.095 1.303 2.222 2.069 3.317.767 1.095 1.62 2.158 2.587 3.127.966.969 2.046 1.844 3.266 2.561.496.717 1.25 1.479 2.116 2.146.371-.049.854-.192 1.303-.57M2274.062 43.627c.786.284 1.797-.232 2.396-1.655 1.133-1.697 2.709-1.77 5.913-3.643 1.133-1.697 4.119-3.393 5.446-7.81l3.399-8.7 3.394-5.09 3.399-5.09c.402-.605.261-1.449-.318-1.878l-1.184-1.857c-.394-.294-.71-.972-1.509-1.34l-1.184-.883c-.992-.43-2.212-.288-3.034.311l-5.77 8.502c-2.404 2.906-4.234 6.124-6.157 8.957-.204.626-.474 1.104-.745 1.432-.914.004-1.829-.142-2.68-.437l-10.251-8.507-5.919-9.494c-.414-.597-1.119-1.08-2.065-.681l-1.101.961-2.346.964-1.101.966c-1.022.549-1.032 1.809-.617 2.403l1.576 3.265 1.58 2.279 1.571 3.517 1.571 3.516 1.571 3.517c.525.76 1.054 1.65 1.609 2.62.555.969 1.136 2.018 1.766 3.092.63 1.074 1.31 2.175 2.06 3.249.751 1.075 1.574 2.123 2.491 3.092.917.97 1.928 1.861 3.056 2.62.525.76 1.266 1.557 2.099 2.276.309-.041.711-.16 1.084-.474M2324.1 43.701c.742.366 1.725-.062 2.31-1.373 1.187-1.778 2.741-2.213 5.643-4.137 1.187-1.779 3.908-3.557 5.257-7.586l3.562-8.323 3.558-5.335 3.563-5.334c.422-.635.274-1.52-.333-1.969l-1.241-1.732c-.413-.307-.762-.934-1.51-1.303l-1.241-.925c-.948-.45-2.135-.302-2.905.326l-6.048 8.91c-2.414 3.03-4.352 6.318-6.368 9.287-.214.585-.497 1.013-.781 1.286-.816.003-1.634-.15-2.384-.46l-9.789-8.917-6.203-9.733c-.435-.625-1.19-1.048-2.093-.612l-1.154 1.008-2.184 1.01-1.155 1.012c-.965.558-.996 1.794-.561 2.417l1.651 3.205 1.656 2.389 1.648 3.413 1.647 3.413 1.648 3.413c.55.796 1.103 1.7 1.678 2.67s1.172 2.005 1.81 3.062c.637 1.057 1.315 2.135 2.052 3.192.737 1.056 1.534 2.091 2.408 3.061.875.97 1.828 1.875 2.878 2.671.55.796 1.278 1.624 2.084 2.386.255-.034.588-.133.897-.392M2374.132 43.764c.704.437 1.664.084 2.236-1.132 1.234-1.848 2.77-2.591 5.413-4.559 1.234-1.849 3.729-3.697 5.095-7.395l3.702-8 3.699-5.544 3.702-5.545c.439-.659.285-1.578-.345-2.046l-1.29-1.623c-.43-.32-.806-.902-1.511-1.272l-1.289-.962c-.911-.467-2.07-.313-2.796.34l-6.285 9.259c-2.422 3.136-4.454 6.483-6.549 9.569-.222.549-.516.936-.811 1.16-.733.003-1.467-.156-2.131-.479l-9.394-9.267-6.447-9.938c-.451-.65-1.251-1.019-2.116-.554l-1.2 1.048-2.046 1.05-1.199 1.051c-.917.567-.966 1.783-.514 2.43l1.716 3.153 1.72 2.483 1.713 3.324 1.713 3.324 1.713 3.325c.572.827 1.146 1.744 1.738 2.714.593.97 1.203 1.994 1.846 3.036.644 1.041 1.321 2.101 2.046 3.142.726 1.042 1.5 2.066 2.338 3.036.839.97 1.742 1.887 2.724 2.714.572.828 1.29 1.681 2.072 2.48.21-.028.483-.109.737-.322M2424.16 43.818c.671.498 1.611.208 2.173-.925 1.274-1.908 2.793-2.916 5.215-4.922 1.274-1.907 3.575-3.815 4.957-7.23l3.821-7.724 3.82-5.724 3.821-5.723c.454-.681.295-1.63-.356-2.113l-1.331-1.531c-.444-.331-.844-.874-1.512-1.245l-1.331-.993c-.878-.482-2.014-.323-2.701.351l-6.489 9.558c-2.429 3.226-4.54 6.625-6.703 9.811-.229.518-.533.869-.838 1.052-.661.003-1.323-.162-1.913-.496l-9.057-9.566-6.655-10.113c-.466-.671-1.303-.996-2.136-.504l-1.239 1.082-1.928 1.084-1.238 1.085c-.875.574-.939 1.772-.473 2.44l1.772 3.109 1.774 2.563 1.769 3.249 1.769 3.248 1.769 3.249c.591.854 1.183 1.781 1.79 2.751.607.971 1.229 1.985 1.877 3.013.649 1.029 1.325 2.072 2.04 3.101.716 1.028 1.471 2.043 2.279 3.013.807.971 1.667 1.897 2.592 2.752.59.854 1.3 1.729 2.062 2.56.17-.022.393-.088.6-.262M2474.184 43.864c.643.55 1.566.315 2.119-.748 1.308-1.959 2.814-3.193 5.046-5.231 1.308-1.959 3.443-3.918 4.838-7.091l3.924-7.488 3.922-5.876 3.924-5.877c.466-.699.303-1.674-.365-2.169l-1.367-1.453c-.456-.339-.876-.85-1.512-1.222l-1.367-1.019c-.851-.495-1.966-.332-2.621.36l-6.663 9.814c-2.435 3.304-4.614 6.746-6.835 10.017-.235.492-.547.812-.86.96-.6.003-1.201-.167-1.728-.51l-8.767-9.822-6.834-10.263c-.478-.689-1.347-.975-2.153-.461l-1.272 1.112-1.827 1.112-1.271 1.114c-.84.581-.917 1.763-.438 2.449l1.819 3.072 1.821 2.631 1.817 3.184 1.817 3.183 1.816 3.184c.607.877 1.215 1.813 1.834 2.784.62.97 1.251 1.976 1.904 2.994.653 1.017 1.328 2.047 2.035 3.064.707 1.018 1.446 2.024 2.228 2.994.781.971 1.604 1.907 2.48 2.784.606.877 1.308 1.771 2.052 2.63.138-.019.317-.072.484-.212M2524.204 43.903c.62.595 1.528.406 2.073-.597 1.337-2.003 2.831-3.43 4.903-5.495 1.337-2.002 3.331-4.005 4.737-6.971l4.011-7.287 4.01-6.007 4.011-6.008c.476-.714.309-1.71-.374-2.217l-1.397-1.386c-.465-.346-.903-.829-1.512-1.202l-1.398-1.041c-.827-.507-1.925-.34-2.552.368l-6.811 10.031c-2.44 3.37-4.677 6.85-6.947 10.193-.241.47-.56.764-.88.882-.548.002-1.097-.171-1.57-.522l-8.521-10.041-6.985-10.39c-.489-.704-1.386-.957-2.169-.424l-1.299 1.136-1.741 1.137-1.3 1.139c-.809.586-.898 1.755-.408 2.457l1.859 3.039 1.861 2.69 1.858 3.128 1.858 3.129 1.857 3.128c.62.897 1.241 1.84 1.871 2.811.631.971 1.27 1.969 1.927 2.978.657 1.008 1.332 2.025 2.031 3.033.7 1.008 1.425 2.007 2.184 2.978.759.971 1.551 1.914 2.384 2.811.62.896 1.316 1.806 2.045 2.688.109-.014.252-.057.384-.168M2574.221 43.937c.6.632 1.496.483 2.034-.47 1.362-2.04 2.846-3.63 4.781-5.718 1.362-2.04 3.235-4.079 4.651-6.87l4.085-7.116 4.084-6.119 4.086-6.118c.484-.727.315-1.742-.381-2.258l-1.422-1.329c-.475-.353-.927-.812-1.513-1.186l-1.423-1.06c-.809-.516-1.891-.346-2.495.375l-6.936 10.216c-2.445 3.426-4.731 6.937-7.043 10.343-.245.45-.57.722-.896.814-.504.003-1.008-.174-1.436-.531l-8.312-10.226-7.114-10.499c-.498-.717-1.418-.942-2.181-.393l-1.324 1.157-1.667 1.158-1.324 1.159c-.784.591-.882 1.75-.383 2.464l1.893 3.012 1.895 2.74 1.893 3.081 1.892 3.082 1.892 3.081c.631.913 1.264 1.863 1.903 2.834.639.971 1.286 1.964 1.946 2.964.661 1 1.334 2.007 2.028 3.007.693 1.001 1.407 1.994 2.146 2.965.74.971 1.505 1.92 2.303 2.833.632.913 1.322 1.837 2.039 2.739.085-.012.196-.045.299-.131M2624.236 43.965c.582.663 1.468.548 2.001-.362 1.383-2.071 2.858-3.799 4.677-5.907 1.383-2.071 3.156-4.141 4.58-6.785l4.147-6.972 4.147-6.211 4.148-6.212c.492-.738.32-1.769-.386-2.293l-1.445-1.281c-.482-.358-.946-.798-1.513-1.172l-1.445-1.076c-.791-.523-1.861-.351-2.446.381l-7.042 10.372c-2.448 3.473-4.776 7.011-7.123 10.468-.249.435-.579.688-.909.759-.467.002-.935-.178-1.324-.541l-8.136-10.382-7.222-10.589c-.506-.728-1.445-.93-2.192-.368l-1.344 1.176-1.606 1.175-1.344 1.177c-.762.595-.868 1.744-.361 2.469l1.922 2.989 1.924 2.781 1.921 3.042 1.922 3.042 1.921 3.042c.641.927 1.282 1.882 1.929 2.853.648.972 1.3 1.96 1.963 2.953.663.993 1.336 1.992 2.025 2.986.688.993 1.392 1.981 2.115 2.952.723.971 1.467 1.926 2.235 2.853.64.927 1.326 1.862 2.032 2.781.065-.009.15-.034.229-.1M2674.248 43.988c.568.69 1.445.602 1.974-.272 1.4-2.097 2.868-3.94 4.591-6.064 1.4-2.096 3.089-4.193 4.519-6.713l4.2-6.853 4.199-6.289 4.199-6.29c.499-.747.325-1.791-.39-2.321l-1.463-1.241c-.487-.363-.963-.786-1.513-1.16l-1.463-1.09c-.778-.53-1.837-.355-2.405.386l-7.131 10.502c-2.451 3.512-4.814 7.072-7.19 10.573-.252.421-.586.659-.921.712-.435.002-.872-.18-1.229-.548l-7.989-10.512-7.313-10.666c-.512-.737-1.468-.92-2.2-.346l-1.361 1.19-1.555 1.191-1.36 1.191c-.745.598-.858 1.74-.345 2.474l1.947 2.97 1.947 2.816 1.946 3.009 1.946 3.009 1.946 3.009c.649.939 1.298 1.898 1.951 2.869.654.972 1.312 1.955 1.977 2.943s1.338 1.98 2.022 2.968c.684.987 1.379 1.971 2.089 2.942.71.972 1.435 1.931 2.178 2.87.648.938 1.331 1.883 2.028 2.815.048-.006.11-.025.169-.074M2724.258 44.008c.556.711 1.426.646 1.951-.199 1.414-2.118 2.877-4.056 4.521-6.193 1.414-2.118 3.034-4.236 4.47-6.655l4.242-6.754 4.242-6.353 4.242-6.354c.504-.755.328-1.809-.394-2.344l-1.478-1.209c-.492-.366-.976-.776-1.514-1.151l-1.477-1.1c-.766-.536-1.818-.359-2.372.389l-7.203 10.609c-2.454 3.544-4.845 7.123-7.246 10.659-.254.411-.591.636-.929.674-.41.002-.821-.182-1.152-.554l-7.868-10.619-7.388-10.728c-.517-.745-1.486-.911-2.207-.328L2705.323 7l-1.512 1.203-1.375 1.203c-.729.601-.848 1.736-.33 2.478l1.967 2.954 1.967 2.845 1.965 2.982 1.966 2.982 1.966 2.982c.656.948 1.311 1.911 1.97 2.882.659.972 1.321 1.952 1.988 2.935.667.983 1.339 1.969 2.02 2.952.68.983 1.369 1.964 2.068 2.935.698.972 1.408 1.934 2.13 2.883.656.948 1.335 1.9 2.024 2.844.035-.004.079-.018.121-.052M2774.266 44.023c.547.729 1.411.682 1.933-.139 1.425-2.135 2.884-4.149 4.464-6.297 1.426-2.135 2.99-4.27 4.43-6.608l4.277-6.674 4.276-6.405 4.277-6.405c.507-.762.33-1.824-.398-2.364l-1.489-1.182c-.497-.37-.988-.768-1.514-1.143l-1.49-1.109c-.757-.54-1.801-.362-2.345.392l-7.261 10.695c-2.456 3.57-4.869 7.164-7.29 10.728-.256.402-.596.617-.937.643-.389.002-.78-.183-1.09-.558l-7.771-10.705-7.447-10.779c-.522-.751-1.502-.904-2.213-.314l-1.386 1.213-1.479 1.212-1.385 1.213c-.718.603-.841 1.733-.319 2.481l1.983 2.941 1.982 2.868 1.982 2.96 1.982 2.96 1.982 2.96c.661.956 1.322 1.922 1.985 2.894.663.971 1.328 1.949 1.997 2.928.668.979 1.34 1.961 2.018 2.94.678.98 1.361 1.957 2.051 2.929.69.971 1.387 1.937 2.092 2.893.661.956 1.338 1.915 2.022 2.867.023-.003.053-.012.081-.035M2824.272 44.035c.54.743 1.399.71 1.919-.093 1.435-2.148 2.89-4.221 4.42-6.378 1.435-2.148 2.955-4.297 4.399-6.571l4.303-6.612 4.304-6.446 4.303-6.445c.511-.766.333-1.835-.4-2.378l-1.499-1.162c-.499-.372-.995-.761-1.514-1.137l-1.499-1.116c-.75-.543-1.788-.364-2.323.395l-7.307 10.762c-2.458 3.59-4.889 7.195-7.325 10.783-.258.394-.6.601-.943.618-.373.002-.748-.185-1.041-.562l-7.695-10.772-7.495-10.818c-.524-.756-1.512-.899-2.217-.303l-1.395 1.22-1.452 1.221-1.394 1.22c-.708.604-.835 1.731-.309 2.483l1.995 2.931 1.995 2.886 1.994 2.943 1.995 2.944 1.994 2.943c.665.962 1.33 1.93 1.996 2.901.667.972 1.334 1.947 2.004 2.924.67.976 1.342 1.954 2.017 2.93.675.977 1.354 1.952 2.037 2.924.683.972 1.371 1.94 2.064 2.902.664.961 1.339 1.925 2.019 2.885.014-.002.032-.007.05-.022M2874.276 44.044c.535.753 1.391.731 1.909-.058 1.441-2.159 2.894-4.276 4.387-6.439 1.442-2.158 2.93-4.316 4.376-6.544l4.323-6.566 4.324-6.475 4.323-6.475c.513-.77.334-1.844-.401-2.39l-1.506-1.146c-.502-.373-1.002-.757-1.515-1.132l-1.506-1.121c-.744-.546-1.779-.366-2.307.396l-7.341 10.812c-2.459 3.605-4.904 7.219-7.351 10.823-.259.389-.602.59-.947.6-.361.002-.724-.185-1.005-.564l-7.639-10.823-7.529-10.847c-.527-.759-1.521-.895-2.221-.294l-1.401 1.226-1.432 1.226-1.401 1.226c-.701.605-.83 1.729-.302 2.484l2.004 2.925 2.004 2.899 2.004 2.93 2.003 2.931 2.004 2.93c.668.967 1.336 1.936 2.005 2.908.669.972 1.338 1.945 2.009 2.92.671.974 1.342 1.949 2.016 2.924.674.974 1.349 1.948 2.027 2.919.678.972 1.358 1.942 2.042 2.908.668.966 1.341 1.934 2.017 2.899.008-.001.018-.004.027-.012M2924.28 44.05c.53.76 1.384.745 1.901-.035 1.446-2.165 2.896-4.312 4.365-6.479 1.446-2.165 2.912-4.331 4.359-6.525l4.338-6.535 4.337-6.496 4.337-6.495c.515-.772.335-1.85-.403-2.398l-1.511-1.135c-.503-.375-1.006-.754-1.514-1.13l-1.511-1.124c-.741-.548-1.773-.367-2.297.398l-7.364 10.845c-2.46 3.616-4.913 7.236-7.368 10.851-.26.386-.604.582-.95.588-.354.002-.708-.186-.98-.566l-7.601-10.857-7.553-10.867c-.528-.761-1.527-.892-2.223-.288l-1.405 1.229-1.419 1.23-1.405 1.23c-.697.606-.828 1.728-.298 2.486l2.01 2.919 2.011 2.908 2.01 2.922 2.01 2.922 2.01 2.922c.67.969 1.341 1.94 2.011 2.912.67.972 1.341 1.944 2.012 2.917.672.973 1.343 1.946 2.016 2.919.672.973 1.346 1.945 2.02 2.917.675.972 1.35 1.943 2.027 2.912.67.97 1.342 1.94 2.016 2.909.003-.001.007-.002.012-.006M2974.281 44.054c.529.764 1.382.753 1.898-.022 1.448-2.169 2.898-4.333 4.352-6.503 1.448-2.169 2.901-4.338 4.35-6.514l4.345-6.517 4.345-6.507 4.345-6.508c.516-.773.336-1.853-.404-2.401l-1.513-1.129c-.504-.376-1.009-.753-1.514-1.128l-1.514-1.127c-.738-.549-1.769-.368-2.291.399l-7.377 10.865c-2.46 3.622-4.919 7.245-7.378 10.866-.261.384-.606.578-.952.581-.349.003-.699-.186-.966-.567l-7.578-10.876-7.567-10.879c-.53-.763-1.531-.891-2.225-.285l-1.407 1.232-1.412 1.232-1.407 1.232c-.694.607-.826 1.727-.295 2.487l2.014 2.916 2.014 2.913 2.014 2.917 2.013 2.917 2.014 2.917c.672.971 1.343 1.943 2.014 2.914.672.972 1.343 1.944 2.015 2.916.671.972 1.343 1.944 2.015 2.916l2.016 2.916c.673.972 1.345 1.943 2.018 2.915.672.971 1.343 1.942 2.016 2.913 0 0 .001 0 .002-.001M3024.282 44.055c.528.765 1.38.756 1.896-.017 1.449-2.17 2.898-4.341 4.348-6.511 1.449-2.17 2.898-4.341 4.347-6.511l4.348-6.511 4.347-6.511 4.348-6.511c.516-.774.336-1.854-.404-2.403l-1.514-1.127-1.515-1.128-1.514-1.127c-.738-.549-1.768-.368-2.289.399l-7.382 10.871c-2.46 3.624-4.92 7.248-7.381 10.872-.26.384-.606.577-.953.579-.347.002-.695-.187-.961-.568l-7.571-10.883-7.571-10.882c-.53-.763-1.532-.89-2.225-.284l-1.409 1.233-1.408 1.232-1.409 1.233c-.693.607-.825 1.727-.294 2.487l2.015 2.915 2.015 2.916 2.015 2.915 2.015 2.915 2.015 2.915 2.016 2.916c.671.971 1.343 1.943 2.015 2.915.671.972 1.343 1.943 2.015 2.915.671.972 1.343 1.944 2.015 2.915.672.972 1.343 1.944 2.015 2.916.672.971 1.343 1.943 2.015 2.915" fill="#000000"/></svg>