<svg xmlns="http://www.w3.org/2000/svg" viewBox="0 0 3050 50" width="3050" height="50"><path d="M12.214 1.681v.008h-4.47s-1.762-.361-2.1 1.492h-.012v5.701h.012c.338 2.201 2.1 1.772 2.1 1.772h4.49l.03 8.836v19.851h-4.52s-1.762-.361-2.1 1.492h-.012v5.701h.012c.338 2.2 2.1 1.771 2.1 1.771h4.52v-.025l17.01.061s15.021-.41 15.021-14.23c0 0 1.551-8.869-9.709-11.55 0 0 7.438-2.03 6.629-11.521 0 0 0-8.489-12.459-9.38h-16.54l-.002.021zM62.188 1.772v.008l-4.459.011s-1.759-.356-2.091 1.493h-.012l.014 5.687h.012c.343 2.195 2.099 1.762 2.099 1.762l4.479-.011.052 8.814.049 19.802-4.509.011s-1.758-.355-2.091 1.494h-.012l.014 5.687h.012c.343 2.194 2.099 1.761 2.099 1.761l4.509-.011v-.025l16.968.019s14.983-.446 14.949-14.232c0 0 1.525-8.851-9.714-11.497 0 0 7.415-2.044 6.584-11.509 0 0-.021-8.468-12.451-9.326l-16.499.041-.002.021zM112.102 2.07v.008l-4.422.048s-1.748-.339-2.062 1.498h-.012l.061 5.641h.011c.358 2.174 2.097 1.73 2.097 1.73l4.442-.047.124 8.741.211 19.64-4.472.048s-1.747-.338-2.062 1.499h-.011l.06 5.64h.012c.358 2.173 2.097 1.73 2.097 1.73l4.472-.048-.001-.025 16.83-.121s14.857-.565 14.71-14.238c0 0 1.44-8.791-9.729-11.324 0 0 7.337-2.087 6.436-11.469 0 0-.09-8.398-12.426-9.147l-16.364.176-.002.02zM161.942 2.627v.008l-4.355.116s-1.725-.306-2.007 1.507l-.011.001.147 5.553h.012c.386 2.135 2.091 1.672 2.091 1.672l4.374-.116.258 8.606.513 19.338-4.403.117s-1.726-.306-2.007 1.508h-.012l.148 5.554.012-.001c.386 2.135 2.091 1.671 2.091 1.671l4.403-.117-.001-.024 16.572-.381s14.622-.788 14.265-14.25c0 0 1.281-8.68-9.757-11 0 0 7.193-2.17 6.16-11.395 0 0-.22-8.269-12.38-8.815l-16.112.428-.001.02zM211.688 3.508v.008l-4.246.223s-1.692-.255-1.921 1.522l-.011.001.284 5.416h.012c.431 2.074 2.083 1.578 2.083 1.578l4.266-.224.47 8.393.991 18.86-4.294.226s-1.692-.255-1.921 1.522l-.011.001.284 5.416h.012c.431 2.073 2.083 1.577 2.083 1.577l4.295-.225-.002-.024 16.164-.792s14.251-1.139 13.561-14.269c0 0 1.03-8.504-9.801-10.488 0 0 6.965-2.301 5.722-11.277 0 0-.424-8.065-12.305-8.29l-15.714.826-.001.02zM261.318 4.795v.007l-4.089.381s-1.643-.18-1.795 1.544l-.011.001.486 5.215.011-.001c.496 1.985 2.072 1.443 2.072 1.443l4.107-.382.78 8.081 1.689 18.162-4.135.385s-1.643-.181-1.794 1.543l-.011.001.485 5.216.011-.001c.497 1.984 2.072 1.442 2.072 1.442l4.135-.385-.002-.023 15.568-1.392s13.707-1.653 12.531-14.297c0 0 .664-8.246-9.865-9.741 0 0 6.632-2.49 5.084-11.105 0 0-.723-7.766-12.197-7.521l-15.132 1.408v.019zM310.803 6.582l.001.007-3.871.599s-1.574-.077-1.619 1.573l-.01.002.763 4.937.011-.001c.587 1.861 2.056 1.253 2.056 1.253l3.888-.601 1.21 7.648 2.659 17.192-3.915.606s-1.574-.077-1.618 1.573l-.011.002.764 4.937.01-.002c.588 1.861 2.056 1.253 2.056 1.253l3.915-.606-.004-.021 14.74-2.226s12.954-2.367 11.103-14.336c0 0 .155-7.888-9.956-8.702 0 0 6.17-2.754 4.198-10.866 0 0-1.137-7.352-12.047-6.455l-14.324 2.216.001.018zM360.124 8.943l.001.006-3.583.887s-1.484.061-1.387 1.613l-.009.003 1.131 4.569.01-.002c.707 1.697 2.034 1.003 2.034 1.003l3.599-.891 1.778 7.077 3.94 15.911-3.623.897s-1.484.061-1.387 1.613l-.01.002 1.132 4.57.009-.003c.708 1.697 2.035 1.003 2.035 1.003l3.623-.897-.005-.02 13.646-3.327s11.959-3.31 9.216-14.387c0 0-.517-7.417-10.075-7.331 0 0 5.559-3.103 3.027-10.55 0 0-1.685-6.804-11.848-5.046l-13.257 3.283.003.017zM409.285 11.855l.002.006-3.227 1.243s-1.372.229-1.101 1.661l-.009.003 1.586 4.116.008-.003c.856 1.495 2.009.695 2.009.695l3.241-1.248 2.479 6.37 5.52 14.332-3.264 1.257s-1.372.229-1.1 1.661l-.009.003 1.585 4.116.009-.003c.856 1.494 2.008.694 2.008.694l3.264-1.257-.008-.018 12.297-4.685s10.731-4.473 6.888-14.45c0 0-1.346-6.834-10.221-5.639 0 0 4.806-3.534 1.583-10.161 0 0-2.361-6.128-11.603-3.307l-11.941 4.599.004.015zM458.345 15.12l.003.005-2.828 1.643s-1.247.418-.781 1.715l-.007.004 2.094 3.607.007-.004c1.023 1.268 1.979.35 1.979.35l2.841-1.649 3.265 5.579 7.291 12.56-2.86 1.661s-1.247.418-.78 1.715l-.007.004 2.093 3.607.008-.004c1.022 1.268 1.979.349 1.979.349l2.86-1.66-.009-.016 10.784-6.209s9.353-5.777 4.277-14.521c0 0-2.276-6.181-10.385-3.741 0 0 3.961-4.017-.037-9.725 0 0-3.118-5.371-11.329-1.358l-10.465 6.075.007.014zM507.398 18.412l.003.004-2.426 2.045s-1.121.609-.457 1.77l-.007.005 2.607 3.094.007-.005c1.189 1.04 1.949.001 1.949.001l2.437-2.053 4.057 4.782 9.077 10.774-2.454 2.068s-1.121.609-.456 1.77l-.007.005 2.607 3.094.006-.005c1.19 1.039 1.95.001 1.95.001l2.453-2.067-.012-.014 9.26-7.745s7.966-7.091 1.646-14.591c0 0-3.213-5.523-10.55-1.829 0 0 3.108-4.503-1.671-9.285 0 0-3.882-4.607-11.051.606l-8.977 7.564.009.011zM556.521 21.456l.005.004-2.054 2.416s-1.005.787-.159 1.821l-.006.006 3.081 2.62.006-.006c1.345.829 1.922-.321 1.922-.321l2.064-2.427 4.789 4.045 10.728 9.122-2.077 2.444s-1.004.786-.157 1.82l-.006.007 3.081 2.62.006-.007c1.344.828 1.922-.321 1.922-.321l2.077-2.443-.014-.012 7.849-9.165s6.682-8.307-.787-14.658c0 0-4.081-4.913-10.704-.059 0 0 2.321-4.953-3.18-8.878 0 0-4.589-3.901-10.796 2.423l-7.601 8.94.011.01zM605.751 24.132l.005.004-1.727 2.743s-.903.942.104 1.865l-.005.007 3.498 2.203.005-.007c1.481.643 1.898-.604 1.898-.604l1.735-2.755 5.433 3.396 12.181 7.67-1.747 2.774s-.902.942.105 1.866l-.004.007 3.498 2.203.005-.008c1.48.643 1.898-.604 1.898-.604l1.746-2.774-.016-.01 6.61-10.413s5.553-9.375-2.927-14.716c0 0-4.843-4.378-10.838 1.496 0 0 1.628-5.349-4.508-8.52 0 0-5.21-3.281-10.571 4.02l-6.391 10.15.013.008zM655.089 26.431l.006.003-1.447 3.024s-.814 1.075.33 1.903l-.004.008 3.856 1.845.004-.008c1.598.484 1.878-.847 1.878-.847l1.453-3.037 5.986 2.839 13.428 6.423-1.463 3.058s-.814 1.075.331 1.903l-.004.009 3.857 1.844.003-.008c1.598.483 1.878-.847 1.878-.847l1.463-3.058-.018-.008 5.545-11.487s4.583-10.293-4.765-14.765c0 0-5.497-3.918-10.954 2.832 0 0 1.034-5.689-5.648-8.214 0 0-5.743-2.746-10.377 5.393l-5.352 11.189.014.007zM704.525 28.391l.006.002-1.207 3.263s-.739 1.189.522 1.936l-.003.009 4.161 1.539.004-.008c1.698.347 1.859-1.055 1.859-1.055l1.213-3.277 6.458 2.364 14.491 5.36-1.221 3.3s-.739 1.189.524 1.936l-.004.009 4.162 1.539.003-.008c1.697.347 1.86-1.055 1.86-1.055l1.22-3.3-.018-.007 4.637-12.4s3.757-11.076-6.331-14.808c0 0-6.055-3.526-11.053 3.97 0 0 .527-5.978-6.62-7.951 0 0-6.197-2.293-10.212 6.562l-4.466 12.075.015.005zM754.045 30.059l.006.002-1.003 3.467s-.675 1.286.686 1.964l-.003.009 4.422 1.279.002-.009c1.783.232 1.845-1.231 1.845-1.231l1.008-3.482 6.859 1.96 15.396 4.455-1.014 3.506s-.675 1.286.687 1.964l-.003.009 4.422 1.28.002-.009c1.783.231 1.845-1.232 1.845-1.232l1.015-3.506-.02-.006 3.864-13.178s3.054-11.742-7.664-14.844c0 0-6.531-3.192-11.137 4.94 0 0 .095-6.225-7.448-7.729 0 0-6.584-1.905-10.071 7.558l-3.713 12.829.017.005zM803.636 31.481l.006.002-.829 3.641s-.621 1.368.825 1.987l-.002.01 4.643 1.058.002-.01c1.855.133 1.832-1.382 1.832-1.382l.833-3.656 7.202 1.615 16.168 3.684-.839 3.682s-.62 1.368.827 1.987l-.002.01 4.643 1.058.002-.01c1.854.133 1.832-1.382 1.832-1.382l.839-3.682-.021-.005 3.205-13.842s2.454-12.309-8.801-14.874c0 0-6.936-2.908-11.209 5.766 0 0-.273-6.436-8.152-7.539 0 0-6.915-1.575-9.953 8.407l-3.069 13.472.018.004zM853.286 32.695l.007.002-.681 3.789s-.575 1.439.944 2.008l-.002.01 4.833.869.002-.011c1.917.049 1.821-1.51 1.821-1.51l.684-3.805 7.494 1.321 16.826 3.025-.689 3.832s-.573 1.438.947 2.007l-.002.01 4.832.869.002-.01c1.916.048 1.821-1.51 1.821-1.51l.689-3.833-.022-.003 2.643-14.409s1.942-12.795-9.772-14.9c0 0-7.281-2.666-11.27 6.471 0 0-.587-6.615-8.755-7.376 0 0-7.196-1.294-9.85 9.132l-2.52 14.02.018.003zM902.987 33.733l.007.001-.554 3.916s-.535 1.499 1.046 2.025l-.001.01 4.994.707.001-.01c1.97-.023 1.812-1.62 1.812-1.62l.557-3.933 7.744 1.07 17.389 2.462-.561 3.96s-.534 1.499 1.048 2.025l-.001.01 4.994.707.001-.01c1.969-.023 1.812-1.62 1.812-1.62l.561-3.96-.023-.003 2.162-14.893s1.505-13.209-10.601-14.923c0 0-7.576-2.458-11.322 7.074 0 0-.855-6.768-9.269-7.238 0 0-7.437-1.052-9.763 9.752l-2.052 14.489.019.003zM952.733 34.618l.007.001-.447 4.025s-.5 1.55 1.134 2.039l-.001.011 5.132.569.001-.011c2.015-.084 1.804-1.713 1.804-1.713l.448-4.042 7.957.855 17.869 1.982-.451 4.069s-.5 1.55 1.135 2.04l-.001.01 5.132.57.001-.011c2.014-.085 1.804-1.714 1.804-1.714l.451-4.069-.024-.003 1.753-15.306s1.131-13.562-11.309-14.942c0 0-7.829-2.28-11.367 7.589 0 0-1.084-6.899-9.709-7.119 0 0-7.642-.848-9.688 10.279l-1.651 14.89.02.002zM1002.515 35.372l.008.001-.354 4.117s-.472 1.593 1.207 2.051l-.001.011 5.25.452v-.011c2.054-.137 1.798-1.793 1.798-1.793l.355-4.134 8.139.672 18.278 1.573-.358 4.162s-.471 1.594 1.209 2.052l-.001.011 5.249.452.001-.011c2.053-.137 1.798-1.793 1.798-1.793l.358-4.163-.024-.002 1.403-15.658s.813-13.863-11.912-14.958c0 0-8.044-2.13-11.404 8.027 0 0-1.28-7.011-10.083-7.019 0 0-7.818-.672-9.625 10.73l-1.311 15.23.02.002zM1052.331 36.011l.008.001-.276 4.195s-.448 1.631 1.27 2.062l-.001.012 5.349.352.001-.012c2.086-.181 1.791-1.861 1.791-1.861l.278-4.212 8.292.517 18.625 1.226-.279 4.242s-.447 1.631 1.272 2.062l-.001.012 5.349.352.001-.012c2.085-.181 1.791-1.861 1.791-1.861l.279-4.241-.024-.002 1.107-15.956s.543-14.118-12.423-14.972c0 0-8.226-2.002-11.436 8.398 0 0-1.446-7.105-10.401-6.933 0 0-7.965-.524-9.571 11.112l-1.021 15.519.02.001zM1102.177 36.55h.007l-.21 4.261s-.427 1.662 1.323 2.071l-.001.011 5.433.269.001-.012c2.113-.218 1.786-1.918 1.786-1.918l.211-4.278 8.422.387 18.917.934-.213 4.308s-.426 1.662 1.325 2.071v.012l5.433.268v-.011c2.113-.219 1.787-1.918 1.787-1.918l.212-4.309-.024-.001.857-16.207s.317-14.333-12.853-14.983c0 0-8.379-1.895-11.463 8.71 0 0-1.585-7.184-10.667-6.861 0 0-8.091-.399-9.526 11.433l-.778 15.762.021.001zM1152.047 36.998h.008l-.155 4.316s-.41 1.688 1.367 2.078l-.001.012 5.503.198v-.011c2.137-.25 1.783-1.965 1.783-1.965l.156-4.334 8.53.278 19.16.691-.157 4.364s-.409 1.688 1.369 2.078l-.001.012 5.503.198v-.011c2.135-.25 1.783-1.965 1.783-1.965l.157-4.364-.025-.001.65-16.416s.127-14.513-13.212-14.994c0 0-8.506-1.804-11.486 8.972 0 0-1.7-7.251-10.889-6.801 0 0-8.195-.296-9.488 11.7l-.576 15.965.021.001zM1201.942 37.366h.007l-.11 4.361s-.396 1.709 1.403 2.085v.011l5.56.141v-.011c2.155-.276 1.779-2.005 1.779-2.005l.111-4.379 8.618.19 19.36.491-.111 4.409s-.395 1.709 1.405 2.085l-.001.012 5.56.141.001-.012c2.154-.275 1.779-2.004 1.779-2.004l.112-4.41h-.026l.479-16.588s-.027-14.66-13.505-15.001c0 0-8.611-1.731-11.505 9.185 0 0-1.795-7.306-11.072-6.752 0 0-8.28-.21-9.457 11.92l-.409 16.131.022.001zM1251.856 37.662h.008l-.074 4.397s-.385 1.726 1.432 2.09v.012l5.606.094v-.011c2.17-.296 1.777-2.036 1.777-2.036l.074-4.415 8.69.117 19.52.331-.075 4.445s-.383 1.727 1.434 2.09v.012l5.606.095.001-.012c2.169-.296 1.776-2.035 1.776-2.035l.075-4.446-.025-.001.342-16.726s-.153-14.777-13.743-15.007c0 0-8.695-1.672-11.519 9.357 0 0-1.872-7.349-11.219-6.713 0 0-8.349-.141-9.432 12.097l-.275 16.266h.021zM1301.79 37.893h.008l-.046 4.425s-.376 1.74 1.454 2.094v.011l5.642.059.001-.012c2.181-.311 1.774-2.06 1.774-2.06l.046-4.443 8.745.061 19.646.206-.046 4.474s-.375 1.74 1.456 2.094v.011l5.642.059v-.012c2.181-.311 1.775-2.06 1.775-2.06l.047-4.474h-.026l.235-16.834s-.25-14.87-13.927-15.012c0 0-8.761-1.626-11.531 9.491 0 0-1.932-7.383-11.333-6.682 0 0-8.402-.087-9.413 12.235l-.171 16.37h.022zM1351.74 38.064h.008l-.025 4.446s-.369 1.75 1.472 2.097v.012l5.669.032v-.012c2.19-.324 1.773-2.078 1.773-2.078l.025-4.465 8.786.02 19.739.112-.025 4.496s-.368 1.75 1.473 2.096v.012l5.669.032v-.011c2.19-.324 1.773-2.079 1.773-2.079l.026-4.495h-.026l.155-16.914s-.322-14.938-14.064-15.016c0 0-8.81-1.592-11.539 9.591 0 0-1.977-7.409-11.419-6.659 0 0-8.442-.048-9.398 12.337l-.093 16.447h.021zM1401.707 38.182h.008l-.011 4.46s-.365 1.757 1.483 2.098v.012l5.687.014v-.012c2.197-.332 1.772-2.09 1.772-2.09l.011-4.479 8.814-.009 19.803.049-.011 4.51s-.364 1.757 1.485 2.098v.012l5.687.014v-.012c2.196-.332 1.772-2.09 1.772-2.09l.011-4.51h-.026l.101-16.969s-.371-14.985-14.157-15.019c0 0-8.844-1.568-11.546 9.659 0 0-2.007-7.426-11.476-6.643 0 0-8.47-.02-9.389 12.407l-.04 16.501h.022zM1451.687 38.249h.008l-.002 4.469s-.362 1.76 1.489 2.099v.012l5.698.004v-.012c2.2-.337 1.771-2.098 1.771-2.098l.003-4.487 8.831-.025 19.839.012-.003 4.518s-.361 1.761 1.492 2.1v.012l5.698.003v-.012c2.199-.336 1.771-2.098 1.771-2.098l.003-4.518h-.026l.07-17s-.4-15.012-14.212-15.02c0 0-8.863-1.555-11.549 9.698 0 0-2.024-7.436-11.51-6.634 0 0-8.485-.005-9.383 12.447l-.01 16.531h.022zM1522.561 15.902s-2.03-7.439-11.521-6.631c0 0-8.49 0-9.381 12.46v16.541h.022v-.001h.008v4.471s-.361 1.762 1.492 2.1v.012h5.701v-.012c2.201-.338 1.771-2.1 1.771-2.1v-4.49l8.836-.03h19.851v4.521s-.36 1.762 1.494 2.1v.012h5.701v-.012c2.2-.338 1.771-2.1 1.771-2.1v-4.521h-.026l.06-17.01s-.409-15.021-14.229-15.021c0 0-8.869-1.55-11.55 9.711M1572.569 15.878c-.001-.002-2.029-7.422-11.497-6.615-.004.006-8.477.011-9.369 12.446l-.011 16.516.012.016-.011.015-.003.016c-.001 1.489-.001 2.978.001 4.466.001.001-.358 1.76 1.492 2.098l.004.014 5.69.003c.002-.002.005-.007.006-.013 2.2-.343 1.775-2.106 1.779-2.112l.012-4.497 8.826-.048c6.602-.002 13.205-.002 19.807 0l.019 4.537c.006.009-.347 1.775 1.509 2.121.001.006.004.011.005.013l5.691-.003.003-.015c2.196-.338 1.769-2.097 1.77-2.098.001-1.504.002-3.008.002-4.513l-.027-.003.032-17.007c-.009-.014-.426-15.011-14.221-15.024 0 0-8.847-1.546-11.521 9.687M1622.595 15.799c-.006-.008-2.023-7.368-11.419-6.561-.015.024-8.43.047-9.327 12.397l-.047 16.434-.024.07-.046.068-.039.069c-.005 1.483-.003 2.969.005 4.449.005.004-.347 1.752 1.492 2.09l.016.024 5.656.012c.008.002.019-.004.025-.016 2.195-.36 1.787-2.129 1.804-2.155l.053-4.519 8.794-.107c6.552-.008 13.108-.008 19.66 0l.081 4.588c.026.039-.303 1.821 1.558 2.194.006.012.017.017.024.015l5.655-.013.015-.025c2.182-.339 1.762-2.087 1.767-2.091.004-1.494.006-2.99.007-4.486-.008-.004-.018-.009-.029-.014l-.059-16.999c-.039-.057-.483-14.975-14.195-15.032 0 0-8.775-1.533-11.427 9.608M1672.643 15.651c-.014-.02-2.014-7.266-11.272-6.459-.038.056-8.346.112-9.251 12.306l-.113 16.282-.091.168-.112.168-.105.168c-.013 1.472-.008 2.951.011 4.417.013.01-.326 1.736 1.492 2.075l.039.041 5.593.029c.019.011.046.002.059-.022 2.187-.391 1.81-2.17 1.853-2.233l.127-4.561 8.735-.217c6.459-.02 12.927-.02 19.387 0l.196 4.685c.065.094-.22 1.904 1.651 2.328.014.023.04.03.057.019l5.59-.032.037-.044c2.155-.34 1.749-2.067 1.762-2.077.008-1.476.014-2.956.015-4.435-.007-.012-.018-.024-.033-.034l-.228-16.985c-.096-.138-.59-14.909-14.148-15.047 0 0-8.64-1.51-11.251 9.46M1722.719 15.418c-.027-.039-1.998-7.106-11.041-6.3-.072.109-8.211.217-9.129 12.163l-.218 16.041-.196.325-.217.324-.209.325c-.026 1.454-.017 2.924.02 4.368.025.018-.293 1.711 1.493 2.051l.076.068 5.492.056c.036.024.088.011.114-.031 2.173-.442 1.846-2.237 1.928-2.357l.246-4.628 8.64-.39c6.313-.039 12.643-.039 18.956-.001l.378 4.839c.126.181-.09 2.036 1.797 2.538.027.042.077.052.111.026l5.487-.062.07-.073c2.114-.341 1.73-2.036 1.753-2.056.018-1.447.028-2.901.031-4.355-.006-.022-.019-.046-.041-.065l-.496-16.961c-.185-.267-.758-14.805-14.072-15.072 0 0-8.426-1.472-10.973 9.227M1772.83 15.076c-.045-.065-1.975-6.87-10.702-6.065-.124.185-8.014.369-8.953 11.954l-.37 15.687-.35.554-.37.553-.362.555c-.044 1.429-.029 2.884.034 4.294.043.032-.244 1.676 1.494 2.018l.129.107 5.344.096c.063.043.151.024.195-.045 2.154-.515 1.9-2.333 2.039-2.538l.419-4.725 8.503-.644c6.098-.066 12.225-.066 18.324-.001l.645 5.062c.215.309.1 2.23 2.011 2.848.045.068.13.083.189.035l5.336-.105.12-.116c2.053-.344 1.7-1.991 1.74-2.026.03-1.405.047-2.82.052-4.237-.004-.039-.02-.079-.051-.111l-.888-16.927c-.314-.455-1.003-14.652-13.961-15.107 0 0-8.114-1.418-10.567 8.884M1822.984 14.602c-.071-.102-1.943-6.544-10.232-5.74-.194.291-7.741.581-8.707 11.663l-.582 15.197-.563.873-.583.871-.575.872c-.069 1.394-.045 2.83.054 4.194.068.05-.177 1.626 1.495 1.97l.203.161 5.14.151c.099.07.237.042.307-.064 2.126-.616 1.973-2.466 2.193-2.789l.659-4.86 8.311-.996c5.801-.103 11.647-.104 17.449-.002l1.014 5.373c.338.486.364 2.498 2.308 3.277.071.105.205.126.298.048l5.126-.165.189-.176c1.968-.347 1.659-1.928 1.722-1.983.047-1.346.074-2.709.081-4.075 0-.06-.021-.123-.064-.174l-1.433-16.879c-.494-.716-1.343-14.441-13.807-15.157 0 0-7.681-1.342-10.003 8.41M1873.188 13.976c-.105-.152-1.901-6.112-9.611-5.311-.288.43-7.381.861-8.382 11.279l-.863 14.55-.845 1.293-.863 1.291-.857 1.292c-.102 1.348-.066 2.757.081 4.061.1.074-.089 1.561 1.496 1.907l.301.233 4.87.224c.146.106.351.066.454-.089 2.09-.751 2.071-2.642 2.396-3.122l.977-5.037 8.059-1.462c5.407-.153 10.882-.154 16.291-.003l1.502 5.784c.501.72.714 2.852 2.701 3.843.105.155.304.183.441.066l4.849-.245.28-.254c1.857-.352 1.606-1.846 1.699-1.928.069-1.268.11-2.561.12-3.859.004-.089-.023-.183-.082-.258l-2.152-16.816c-.733-1.061-1.794-14.162-13.605-15.222 0 0-7.109-1.243-9.257 7.783M1923.439 13.204c-.147-.213-1.849-5.581-8.845-4.782-.403.603-6.935 1.206-7.981 10.805l-1.209 13.753-1.193 1.81-1.209 1.81-1.203 1.81c-.144 1.291-.094 2.667.112 3.896.141.104.02 1.481 1.498 1.829l.421.322 4.537.314c.206.15.492.096.637-.12 2.045-.915 2.191-2.859 2.647-3.531l1.368-5.257 7.747-2.036c4.922-.214 9.939-.215 14.864-.004l2.105 6.29c.702 1.009 1.144 3.29 3.184 4.542.147.215.426.254.618.088l4.508-.343.392-.351c1.719-.358 1.54-1.745 1.67-1.859.097-1.172.154-2.38.169-3.594.008-.125-.026-.256-.106-.361l-3.038-16.739c-1.028-1.486-2.35-13.817-13.355-15.303 0 0-6.403-1.119-8.338 7.011M1973.721 12.338c-.194-.281-1.792-4.984-7.986-4.189-.533.797-6.436 1.594-7.532 10.275l-1.597 12.857-1.583 2.391-1.597 2.391-1.592 2.392c-.189 1.227-.123 2.566.148 3.711.186.138.143 1.391 1.501 1.742l.556.422 4.163.414c.271.2.65.13.841-.154 1.995-1.101 2.325-3.103 2.928-3.991l1.807-5.502 7.398-2.681c4.378-.282 8.881-.284 13.263-.005l2.781 6.858c.927 1.333 1.626 3.78 3.726 5.326.195.283.563.332.817.112l4.125-.453.517-.46c1.565-.365 1.466-1.631 1.638-1.782.128-1.065.203-2.177.223-3.296.014-.165-.028-.338-.131-.477l-4.033-16.652c-1.357-1.963-2.973-13.43-13.074-15.393 0 0-5.611-.981-7.307 6.144M2024.005 11.465c-.242-.35-1.733-4.383-7.12-3.591-.663.992-5.934 1.985-7.08 9.74l-1.988 11.955-1.976 2.977-1.988 2.976-1.983 2.978c-.236 1.162-.154 2.465.184 3.525.231.171.266 1.3 1.503 1.655l.692.522 3.787.515c.337.25.808.164 1.046-.189 1.945-1.288 2.462-3.349 3.212-4.453l2.25-5.751 7.046-3.33c3.829-.351 7.814-.354 11.649-.006l3.462 7.43c1.154 1.659 2.112 4.274 4.272 6.116.243.351.701.412 1.018.137l3.738-.564.645-.57c1.408-.371 1.39-1.516 1.605-1.703.159-.957.253-1.973.277-2.997.02-.206-.031-.42-.157-.594l-5.035-16.564c-1.689-2.444-3.601-13.04-12.791-15.484 0 0-4.813-.842-6.268 5.27M2074.267 10.658c-.285-.414-1.678-3.827-6.319-3.038-.783 1.173-5.468 2.346-6.661 9.245l-2.349 11.12-2.34 3.519-2.35 3.518-2.346 3.519c-.278 1.103-.181 2.372.219 3.353.273.203.38 1.216 1.504 1.574l.818.615 3.439.609c.398.296.955.196 1.237-.221 1.898-1.461 2.587-3.576 3.473-4.882l2.66-5.98 6.72-3.931c3.322-.415 6.828-.417 10.157-.006l4.091 7.959c1.364 1.961 2.563 4.731 4.779 6.847.286.414.828.485 1.202.159l3.382-.666.761-.672c1.265-.377 1.322-1.409 1.576-1.631.187-.857.298-1.782.327-2.719.025-.243-.033-.497-.18-.702l-5.963-16.483c-1.997-2.889-4.181-12.68-12.529-15.569 0 0-4.076-.712-5.308 4.463M2124.498 9.948c-.324-.47-1.631-3.338-5.615-2.552-.889 1.332-5.059 2.664-6.293 8.81l-2.667 10.387-2.659 3.995-2.668 3.995-2.665 3.995c-.316 1.05-.206 2.289.248 3.201.31.231.48 1.142 1.506 1.503l.929.697 3.132.692c.453.335 1.085.222 1.405-.25 1.857-1.613 2.697-3.776 3.704-5.258l3.019-6.182 6.434-4.459c2.876-.471 5.962-.474 8.845-.007l4.645 8.425c1.549 2.226 2.958 5.132 5.223 7.489.325.47.94.55 1.365.179l3.068-.757.864-.761c1.139-.382 1.261-1.315 1.549-1.567.213-.769.339-1.616.372-2.475.029-.277-.035-.565-.201-.798l-6.778-16.411c-2.267-3.28-4.692-12.364-12.299-15.643 0 0-3.427-.599-4.463 3.752M2174.696 9.339c-.357-.518-1.59-2.919-5.01-2.134-.98 1.468-4.708 2.936-5.976 8.436l-2.941 9.756-2.934 4.404-2.941 4.404-2.938 4.404c-.349 1.005-.227 2.219.273 3.072.342.254.567 1.078 1.508 1.442l1.024.766 2.869.763c.499.37 1.196.246 1.548-.274 1.822-1.743 2.792-3.948 3.902-5.582l3.329-6.355 6.187-4.912c2.494-.519 5.218-.523 7.719-.008l5.121 8.824c1.707 2.454 3.297 5.478 5.604 8.041.359.518 1.037.606 1.505.196l2.798-.833.953-.838c1.03-.387 1.209-1.235 1.526-1.513.235-.693.374-1.473.41-2.266.033-.304-.037-.622-.219-.879l-7.478-16.35c-2.499-3.615-5.13-12.091-12.101-15.707 0 0-2.87-.501-3.738 3.143M2224.866 8.819c-.386-.559-1.556-2.561-4.496-1.778-1.057 1.584-4.408 3.168-5.706 8.117l-3.174 9.22-3.168 4.753-3.173 4.752-3.172 4.753c-.376.967-.245 2.158.295 2.961.369.274.64 1.024 1.509 1.39l1.105.826 2.645.823c.539.4 1.29.266 1.671-.295 1.791-1.854 2.873-4.094 4.07-5.857l3.592-6.503 5.978-5.298c2.168-.561 4.583-.565 6.758-.009l5.527 9.165c1.842 2.648 3.587 5.772 5.93 8.511.387.558 1.118.653 1.624.211l2.568-.9 1.028-.903c.937-.391 1.164-1.167 1.507-1.467.253-.628.404-1.35.442-2.086.037-.329-.038-.672-.234-.949l-8.075-16.298c-2.697-3.902-5.504-11.86-11.933-15.761 0 0-2.395-.419-3.118 2.622M2275.009 8.377c-.409-.594-1.525-2.256-4.056-1.475-1.124 1.683-4.153 3.366-5.477 7.846l-3.372 8.762-3.367 5.05-3.372 5.049-3.37 5.05c-.4.934-.26 2.107.314 2.866.391.292.702.978 1.509 1.346l1.174.877 2.454.874c.573.426 1.372.284 1.776-.312 1.766-1.949 2.942-4.219 4.214-6.092l3.816-6.629 5.8-5.627c1.889-.596 4.042-.6 5.94-.009l5.871 9.455c1.958 2.813 3.834 6.022 6.208 8.911.411.593 1.188.693 1.725.223l2.372-.956 1.093-.958c.858-.395 1.126-1.109 1.49-1.428.269-.573.429-1.246.47-1.934.04-.35-.039-.714-.247-1.008l-8.583-16.254c-2.865-4.145-5.822-11.662-11.789-15.807 0 0-1.991-.348-2.593 2.18M2325.132 8c-.43-.624-1.5-1.997-3.682-1.217-1.18 1.767-3.936 3.535-5.282 7.615l-3.54 8.372-3.537 5.303-3.541 5.302-3.539 5.303c-.421.906-.274 2.063.329 2.786.411.306.755.939 1.51 1.308l1.233.92 2.291.918c.602.448 1.44.299 1.865-.327 1.744-2.03 3-4.324 4.336-6.292l4.008-6.736 5.648-5.908c1.652-.625 3.581-.629 5.242-.009l6.166 9.702c2.055 2.955 4.044 6.236 6.443 9.253.432.622 1.248.727 1.813.234l2.205-1.004 1.148-1.006c.79-.398 1.093-1.059 1.476-1.394.282-.527.45-1.158.493-1.805.042-.367-.041-.749-.259-1.059l-9.015-16.215c-3.009-4.353-6.094-11.493-11.668-15.846 0 0-1.645-.288-2.143 1.802M2375.237 7.678c-.448-.65-1.479-1.775-3.363-.996-1.228 1.839-3.75 3.679-5.114 7.417l-3.685 8.039-3.682 5.519-3.685 5.519-3.684 5.519c-.438.882-.285 2.025.342 2.717.428.319.801.906 1.511 1.276l1.284.957 2.152.956c.626.465 1.499.31 1.94-.34 1.726-2.1 3.051-4.416 4.441-6.463l4.171-6.828 5.518-6.147c1.45-.651 3.188-.655 4.647-.01l6.418 9.913c2.139 3.075 4.223 6.418 6.645 9.545.449.647 1.298.756 1.885.242l2.063-1.044 1.195-1.047c.733-.4 1.066-1.017 1.464-1.365.294-.487.468-1.082.514-1.694.043-.382-.042-.78-.269-1.102l-9.385-16.183c-3.132-4.531-6.326-11.35-11.563-15.88 0 0-1.352-.236-1.76 1.48M2425.326 7.402c-.462-.671-1.46-1.584-3.089-.807-1.27 1.901-3.592 3.802-4.972 7.249l-3.809 7.755-3.805 5.703-3.809 5.704-3.807 5.703c-.452.862-.294 1.994.354 2.659.442.329.839.876 1.511 1.248l1.327.989 2.034.987c.646.481 1.548.321 2.005-.351 1.71-2.158 3.093-4.493 4.53-6.609l4.311-6.905 5.406-6.352c1.277-.673 2.852-.677 4.139-.011l6.632 10.094c2.211 3.178 4.377 6.574 6.817 9.794.464.669 1.342.781 1.949.25l1.942-1.08 1.234-1.081c.684-.402 1.042-.98 1.454-1.34.303-.453.484-1.018.531-1.6.045-.395-.043-.806-.277-1.139l-9.701-16.155c-3.237-4.682-6.524-11.227-11.474-15.909 0 0-1.1-.192-1.433 1.204M2475.403 7.168c-.475-.69-1.445-1.424-2.857-.647-1.305 1.954-3.457 3.907-4.85 7.105l-3.914 7.512-3.911 5.861-3.914 5.861-3.912 5.861c-.465.845-.303 1.967.363 2.609.455.338.873.852 1.512 1.224l1.363 1.016 1.933 1.015c.664.495 1.591.33 2.06-.361 1.697-2.208 3.13-4.558 4.607-6.733l4.43-6.972 5.311-6.527c1.13-.691 2.566-.696 3.705-.011l6.815 10.248c2.272 3.266 4.508 6.707 6.965 10.006.477.688 1.379.803 2.002.257l1.838-1.109 1.268-1.111c.643-.404 1.023-.95 1.445-1.319.312-.424.498-.963.546-1.519.047-.406-.044-.829-.284-1.171l-9.971-16.131c-3.325-4.812-6.692-11.123-11.397-15.934 0 0-.886-.155-1.153.97M2525.468 6.968c-.486-.706-1.432-1.286-2.659-.51-1.334 1.998-3.341 3.997-4.746 6.982l-4.003 7.306-4.002 5.995-4.003 5.995-4.002 5.995c-.475.83-.31 1.944.372 2.566.464.346.901.832 1.512 1.205l1.395 1.039 1.846 1.038c.679.506 1.628.338 2.107-.369 1.685-2.251 3.161-4.615 4.672-6.839l4.531-7.029 5.231-6.676c1.004-.707 2.321-.711 3.335-.011l6.971 10.379c2.324 3.341 4.619 6.82 7.09 10.187.488.703 1.41.822 2.049.263l1.749-1.135 1.297-1.136c.607-.405 1.005-.923 1.438-1.301.319-.399.509-.916.558-1.451.048-.415-.045-.847-.29-1.197l-10.2-16.111c-3.402-4.922-6.836-11.033-11.333-15.955 0 0-.703-.122-.915.77M2575.523 6.798c-.495-.718-1.42-1.169-2.49-.393-1.36 2.036-3.244 4.072-4.659 6.878l-4.079 7.13-4.078 6.109-4.079 6.109-4.078 6.109c-.485.817-.316 1.924.379 2.53.473.352.925.814 1.513 1.187l1.42 1.059 1.773 1.057c.693.516 1.659.345 2.148-.375 1.675-2.287 3.187-4.663 4.726-6.929l4.618-7.077 5.162-6.802c.898-.72 2.114-.725 3.022-.011l7.103 10.49c2.368 3.404 4.714 6.916 7.196 10.341.497.716 1.438.836 2.088.267l1.674-1.157 1.322-1.157c.576-.406.99-.901 1.431-1.286.325-.378.519-.876.569-1.392.049-.423-.045-.864-.295-1.22l-10.395-16.095c-3.466-5.014-6.958-10.957-11.278-15.971 0 0-.547-.096-.713.599M2625.569 6.656c-.503-.73-1.41-1.071-2.348-.296-1.381 2.068-3.162 4.136-4.585 6.791l-4.143 6.983-4.142 6.204-4.143 6.205-4.143 6.204c-.491.807-.32 1.907.385 2.5.481.358.945.799 1.514 1.173l1.443 1.075 1.711 1.074c.703.524 1.685.35 2.181-.381 1.667-2.318 3.21-4.703 4.773-7.005l4.69-7.117 5.105-6.908c.808-.732 1.939-.737 2.758-.012l7.215 10.584c2.404 3.457 4.792 6.997 7.285 10.47.505.727 1.46.849 2.12.271l1.611-1.175 1.343-1.175c.551-.407.978-.882 1.426-1.273.33-.361.526-.843.577-1.343.05-.43-.045-.878-.298-1.239l-10.56-16.081c-3.52-5.093-7.06-10.893-11.231-15.986 0 0-.417-.073-.544.457M2675.608 6.537c-.509-.74-1.402-.989-2.231-.215-1.399 2.095-3.093 4.19-4.522 6.718l-4.197 6.86-4.195 6.285-4.197 6.284-4.196 6.285c-.498.798-.324 1.893.39 2.474.487.362.962.786 1.514 1.161l1.461 1.088 1.66 1.088c.713.531 1.707.355 2.21-.385 1.66-2.344 3.228-4.737 4.811-7.068l4.75-7.152 5.057-6.996c.733-.741 1.795-.746 2.538-.012l7.308 10.662c2.436 3.502 4.859 7.064 7.359 10.577.512.737 1.479.861 2.148.275l1.558-1.19 1.36-1.19c.53-.408.969-.866 1.422-1.263.334-.345.533-.814.585-1.302.051-.435-.046-.888-.302-1.255l-10.696-16.068c-3.566-5.159-7.146-10.84-11.193-15.999 0 0-.309-.054-.402.338M2725.64 6.439c-.515-.747-1.396-.921-2.134-.147-1.413 2.116-3.037 4.233-4.472 6.658l-4.24 6.759-4.24 6.35-4.24 6.35-4.24 6.35c-.503.79-.327 1.881.394 2.453.493.366.976.776 1.514 1.151l1.477 1.1 1.618 1.099c.72.537 1.724.359 2.232-.389 1.654-2.364 3.243-4.764 4.843-7.12l4.8-7.179 5.017-7.069c.672-.749 1.676-.754 2.358-.012l7.384 10.726c2.461 3.538 4.913 7.119 7.42 10.666.517.744 1.495.869 2.17.277l1.516-1.202 1.374-1.203c.512-.409.96-.853 1.418-1.254.338-.333.539-.791.591-1.268.051-.44-.046-.898-.305-1.268l-10.808-16.059c-3.603-5.212-7.216-10.797-11.161-16.009 0 0-.22-.039-.286.24M2775.665 6.36c-.519-.753-1.39-.867-2.056-.093-1.425 2.134-2.991 4.268-4.431 6.61l-4.275 6.678-4.275 6.402-4.275 6.403-4.276 6.403c-.507.785-.33 1.872.398 2.436.496.37.986.768 1.514 1.144l1.489 1.108 1.584 1.109c.726.541 1.738.362 2.251-.393 1.649-2.381 3.255-4.786 4.868-7.161l4.839-7.202 4.987-7.127c.622-.755 1.579-.76 2.212-.012l7.445 10.777c2.482 3.568 4.957 7.164 7.47 10.737.521.751 1.506.877 2.188.28l1.48-1.212 1.386-1.213c.498-.409.953-.843 1.415-1.247.341-.323.543-.773.596-1.241.052-.444-.046-.906-.307-1.279l-10.898-16.05c-3.634-5.256-7.273-10.762-11.136-16.018 0 0-.148-.026-.193.161M2825.685 6.299c-.522-.758-1.386-.825-1.995-.051-1.434 2.147-2.956 4.295-4.4 6.572l-4.302 6.615-4.303 6.443-4.302 6.444-4.303 6.444c-.511.78-.333 1.865.4 2.423.499.372.995.762 1.514 1.138l1.499 1.115 1.557 1.116c.731.544 1.75.364 2.265-.395 1.647-2.394 3.266-4.803 4.889-7.194l4.87-7.219 4.962-7.173c.584-.76 1.504-.765 2.099-.012l7.493 10.818c2.497 3.59 4.991 7.198 7.508 10.792.524.755 1.516.882 2.202.281l1.453-1.22 1.395-1.22c.487-.41.948-.835 1.412-1.241.343-.316.547-.759.6-1.221.053-.446-.046-.911-.309-1.286l-10.968-16.045c-3.657-5.29-7.317-10.734-11.116-16.024 0 0-.092-.016-.12.1M2875.7 6.254c-.525-.762-1.383-.794-1.95-.021-1.441 2.158-2.93 4.316-4.376 6.545l-4.323 6.567-4.323 6.475-4.323 6.474-4.323 6.474c-.513.777-.334 1.861.401 2.414.502.374 1.002.757 1.515 1.133l1.505 1.121 1.538 1.121c.734.547 1.758.366 2.277-.397 1.643-2.404 3.272-4.816 4.903-7.218l4.893-7.232 4.943-7.207c.555-.763 1.449-.768 2.015-.012l7.529 10.847c2.509 3.608 5.016 7.225 7.536 10.834.527.759 1.524.886 2.213.282l1.433-1.225 1.401-1.226c.479-.411.944-.829 1.411-1.238.345-.31.55-.748.603-1.205.053-.448-.047-.915-.311-1.292l-11.02-16.04c-3.674-5.315-7.35-10.714-11.102-16.029 0 0-.05-.009-.065.055M2925.71 6.223c-.526-.764-1.381-.773-1.919 0-1.446 2.165-2.912 4.331-4.36 6.526l-4.337 6.535-4.337 6.496-4.337 6.495-4.337 6.495c-.515.775-.335 1.857.403 2.407.504.375 1.006.754 1.514 1.13l1.511 1.124 1.525 1.125c.736.548 1.763.367 2.283-.398 1.642-2.411 3.277-4.825 4.913-7.235l4.909-7.241 4.931-7.229c.536-.767 1.411-.772 1.958-.012l7.552 10.867c2.518 3.619 5.034 7.242 7.556 10.862.529.761 1.529.888 2.22.283l1.419-1.23 1.406-1.229c.474-.411.941-.825 1.41-1.235.345-.307.551-.741.604-1.194.053-.45-.046-.919-.311-1.297l-11.056-16.037c-3.686-5.332-7.372-10.7-11.092-16.032 0 0-.021-.004-.028.024M2975.716 6.205c-.528-.766-1.38-.76-1.902.013-1.448 2.169-2.901 4.338-4.35 6.514l-4.345 6.517-4.345 6.507-4.345 6.508-4.345 6.507c-.516.773-.336 1.854.404 2.403.504.375 1.008.752 1.514 1.128l1.513 1.127 1.517 1.126c.738.55 1.767.368 2.288-.399 1.64-2.414 3.28-4.83 4.919-7.244l4.918-7.246 4.923-7.243c.525-.767 1.389-.772 1.925-.012l7.566 10.88c2.523 3.625 5.045 7.252 7.568 10.877.53.763 1.531.891 2.223.284l1.412-1.232 1.408-1.232c.471-.41.94-.822 1.409-1.233.347-.304.553-.736.606-1.188.053-.45-.046-.92-.312-1.299l-11.077-16.035c-3.692-5.342-7.385-10.692-11.085-16.034 0 0-.005-.001-.007.006M3025.718 6.199c-.528-.766-1.38-.756-1.896.017-1.449 2.17-2.898 4.341-4.348 6.511l-4.347 6.511-4.348 6.511-4.347 6.511-4.348 6.511c-.516.773-.336 1.854.404 2.402.505.376 1.01.752 1.514 1.127l1.515 1.128 1.514 1.127c.738.55 1.768.368 2.289-.399 1.64-2.416 3.281-4.832 4.921-7.247l4.921-7.248 4.921-7.247c.521-.768 1.382-.773 1.914-.012l7.571 10.883c2.524 3.628 5.047 7.255 7.571 10.883.53.763 1.532.891 2.225.284l1.409-1.233 1.409-1.232c.47-.411.939-.822 1.409-1.233.347-.304.553-.735.606-1.186.053-.451-.046-.92-.312-1.3l-11.084-16.035c-3.694-5.344-7.388-10.689-11.083-16.034" fill="#000000"/></svg>